<svg width="25" height="22" viewBox="0 0 25 22" fill="none" xmlns="http://www.w3.org/2000/svg">
<path d="M7.66545 11.6653C7.66545 11.2565 7.78274 10.8569 8.00251 10.517C8.22227 10.1771 8.53463 9.91218 8.90008 9.75574C9.26553 9.5993 9.66766 9.55837 10.0556 9.63812C10.4436 9.71787 10.8 9.91473 11.0797 10.2038C11.3594 10.4929 11.5498 10.8612 11.627 11.2621C11.7042 11.663 11.6646 12.0786 11.5132 12.4563C11.3618 12.834 11.1055 13.1568 10.7766 13.3839C10.4477 13.611 10.061 13.7323 9.66545 13.7323C9.13501 13.7323 8.62631 13.5145 8.25123 13.1269C7.87616 12.7393 7.66545 12.2135 7.66545 11.6653ZM22.9988 15.1102C22.4683 15.1102 21.9596 14.8925 21.5846 14.5048C21.2095 14.1172 20.9988 13.5915 20.9988 13.0433V10.9764C20.9988 9.34116 20.5296 7.74267 19.6505 6.38305C18.7715 5.02343 17.5221 3.96374 16.0602 3.33797C14.5984 2.71221 12.9899 2.54848 11.4381 2.86749C9.88621 3.1865 8.46075 3.97393 7.34193 5.13019C6.22311 6.28645 5.46118 7.75962 5.1525 9.3634C4.84382 10.9672 5.00224 12.6296 5.60774 14.1403C6.21324 15.651 7.23862 16.9423 8.55422 17.8507C9.86981 18.7592 11.4165 19.2441 12.9988 19.2441H14.3321C14.6857 19.2441 15.0249 19.3893 15.2749 19.6477C15.525 19.9061 15.6654 20.2566 15.6654 20.622C15.6654 20.9875 15.525 21.338 15.2749 21.5964C15.0249 21.8548 14.6857 22 14.3321 22H12.9988C10.8732 22.001 8.79572 21.3457 7.03296 20.1181C5.27021 18.8906 3.90255 17.1467 3.10545 15.1102H2.99878C2.73614 15.1102 2.47606 15.0568 2.23341 14.9529C1.99076 14.849 1.77028 14.6968 1.58457 14.5048C1.39885 14.3129 1.25153 14.085 1.15102 13.8343C1.05051 13.5835 0.998779 13.3147 0.998779 13.0433V10.2874C1.00258 9.80429 1.1722 9.33828 1.47743 8.97237C1.78265 8.60645 2.20366 8.36441 2.66545 8.28935C3.25292 5.91812 4.58732 3.8164 6.45827 2.31553C8.32923 0.814653 10.6303 0 12.9988 0C15.3672 0 17.6683 0.814653 19.5393 2.31553C21.4102 3.8164 22.7446 5.91812 23.3321 8.28935C23.7939 8.36441 24.2149 8.60645 24.5201 8.97237C24.8254 9.33828 24.995 9.80429 24.9988 10.2874V13.0433C24.9988 13.5915 24.7881 14.1172 24.413 14.5048C24.0379 14.8925 23.5292 15.1102 22.9988 15.1102ZM14.3321 11.6653C14.3321 11.2565 14.4494 10.8569 14.6692 10.517C14.8889 10.1771 15.2013 9.91218 15.5667 9.75574C15.9322 9.5993 16.3343 9.55837 16.7223 9.63812C17.1103 9.71787 17.4666 9.91473 17.7463 10.2038C18.026 10.4929 18.2165 10.8612 18.2937 11.2621C18.3709 11.663 18.3312 12.0786 18.1799 12.4563C18.0285 12.834 17.7722 13.1568 17.4433 13.3839C17.1144 13.611 16.7277 13.7323 16.3321 13.7323C15.8017 13.7323 15.293 13.5145 14.9179 13.1269C14.5428 12.7393 14.3321 12.2135 14.3321 11.6653Z" fill="white"/>
</svg>
