<svg width="23" height="21" viewBox="0 0 23 21" fill="none" xmlns="http://www.w3.org/2000/svg">
<path d="M12.6753 11.7979C12.3424 11.9844 12.0657 12.2932 11.8294 12.6346C11.4008 12.328 10.9793 11.9947 10.5724 11.6455C10.1164 11.2507 9.68362 10.8343 9.28047 10.4013C9.68106 9.94458 10.0536 9.43145 10.1623 8.89323C10.3791 7.8204 10.1346 6.47201 9.49034 5.19509C8.92523 4.07516 8.16165 3.17455 7.28324 2.59099C6.32832 1.95814 5.31183 1.76025 4.41725 2.03816L4.33914 2.06186C4.2849 2.07909 4.25309 2.0877 4.17064 2.11428C4.15039 2.12147 4.13231 2.12721 4.11206 2.1344C3.14716 2.51841 2.41767 3.00264 1.88018 3.61589C1.31588 4.25945 0.939232 5.03491 0.759665 5.92352L0.756745 5.93797C0.428269 7.56348 0.778591 9.47654 1.76693 11.4697C2.71928 13.3897 4.19935 15.2472 6.04203 16.8452C8.40203 18.8881 11.0676 20.2745 13.5478 20.7457C14.8078 20.9852 15.9721 20.9818 17.0069 20.7359C17.6685 20.5783 18.2631 20.3243 18.7798 19.9813C19.1424 19.7407 19.4689 19.4551 19.7572 19.1261C20.3592 18.4357 20.749 17.5952 20.9142 16.6285C20.9375 16.5599 20.9557 16.4883 20.9718 16.4183C20.9732 16.411 20.9834 16.3699 20.9827 16.3641C21.3477 14.558 19.6958 12.6018 17.0581 11.7098C15.3825 11.1456 13.7859 11.1764 12.6753 11.7979ZM19.2474 16.0115L19.2423 16.0368C19.2379 16.0585 19.2299 16.0794 19.2212 16.104C19.2008 16.1582 19.187 16.2174 19.1753 16.2752C19.0706 16.9421 18.8173 17.5075 18.421 17.9613C17.4989 19.0175 15.8843 19.3887 13.8765 19.0074C11.6969 18.5933 9.32731 17.3512 7.19964 15.5076C5.53661 14.0624 4.20432 12.3946 3.35491 10.6814C2.55733 9.07463 2.2511 7.52014 2.49131 6.30353C2.49277 6.2963 2.49423 6.28908 2.49786 6.28041C2.61755 5.6974 2.85995 5.19558 3.21707 4.7865C3.55971 4.3933 4.05905 4.07123 4.74041 3.79723C4.79465 3.77999 4.82286 3.77065 4.8648 3.75845L4.94507 3.73331C5.72105 3.49347 7.04282 4.27377 7.91101 5.99634C8.37318 6.90936 8.56569 7.86376 8.42846 8.54286C8.42773 8.54647 8.39786 8.66638 8.18698 8.94711C8.02829 9.15566 7.83852 9.35982 7.7009 9.51059C7.48216 9.74649 7.33803 9.90159 7.28328 10.1725C7.22197 10.4759 7.29363 10.7818 7.49618 11.054C7.50194 11.0626 7.50915 11.0735 7.51853 11.0829C7.5315 11.1024 7.5452 11.1184 7.56034 11.1365C8.12422 11.7881 8.74887 12.4087 9.41552 12.9889C10.0281 13.5207 10.6754 14.0105 11.3351 14.4484C11.3863 14.4832 11.4427 14.5115 11.4983 14.534C11.9251 14.7011 12.2922 14.7076 12.5924 14.5521C12.8319 14.4275 12.932 14.2485 13.0118 14.1048C13.3389 13.5186 13.5025 13.3787 13.546 13.3499C14.0604 13.0647 15.1014 12.9273 16.4932 13.3984C17.976 13.8936 19.435 15.0644 19.2474 16.0115ZM20.5387 2.35583C19.2643 1.03429 17.5522 0.287894 15.715 0.253149C15.2243 0.244219 14.8224 0.632972 14.8135 1.12369C14.8046 1.61441 15.1933 2.01631 15.684 2.02524C17.0456 2.05036 18.3194 2.60291 19.2657 3.58555C20.2105 4.56602 20.7204 5.85713 20.6931 7.22016C20.6841 7.71088 21.0729 8.11277 21.5636 8.1217C21.7508 8.12569 21.9236 8.07039 22.0691 7.97383C22.3036 7.81819 22.4602 7.5547 22.4652 7.25116C22.4977 5.41547 21.8132 3.67737 20.5387 2.35583Z" fill="white"/>
<path d="M13.8001 5.53398C13.3094 5.52505 12.9075 5.91381 12.8985 6.40453C12.8896 6.89525 13.2784 7.29714 13.7691 7.30607C14.0632 7.311 14.3362 7.43007 14.5396 7.64224C14.7429 7.85441 14.8523 8.13216 14.8473 8.4263C14.837 8.91485 15.2272 9.31892 15.7157 9.32929C15.9029 9.33328 16.0757 9.27797 16.2212 9.18141C16.4557 9.02577 16.6123 8.76228 16.6172 8.45874C16.6311 7.69267 16.3456 6.96575 15.8126 6.41251C15.281 5.86145 14.5661 5.5478 13.8001 5.53398ZM15.0553 3.09942C14.5645 3.09049 14.1627 3.47924 14.1537 3.96996C14.1448 4.46068 14.5335 4.86258 15.0243 4.87151C15.7173 4.88373 16.3651 5.16689 16.8483 5.66872C17.3315 6.17054 17.5897 6.82802 17.5775 7.5211C17.5685 8.01182 17.9573 8.41372 18.448 8.42265C18.6352 8.42663 18.808 8.37133 18.9535 8.27477C19.188 8.11913 19.3446 7.85564 19.3496 7.5521C19.3707 6.38709 18.9364 5.28044 18.1235 4.43755C17.3107 3.59466 16.2225 3.11909 15.0553 3.09942Z" fill="white"/>
</svg>
