<svg width="25" height="24" viewBox="0 0 25 24" fill="none" xmlns="http://www.w3.org/2000/svg">
<path d="M13.2932 1.99967C19.7474 1.99967 20.0751 7.43576 20.4303 8.50658C20.4303 8.50658 20.9394 9.04149 21.0603 9.85736C21.1388 10.3843 20.8206 10.9822 20.8206 10.9822C20.8206 10.9822 22.8833 13.6027 22.8833 15.6614C22.8833 16.9462 22.4813 17.6101 22.0137 17.6101C21.5407 17.6101 20.8535 16.2503 20.8535 16.2503C20.8535 16.2503 19.776 18.4189 19.2373 18.7309C18.6996 19.0398 21.1801 19.3798 21.1801 20.3906C21.1801 21.4064 19.2087 21.8554 17.5978 21.8554C15.9816 21.8554 13.4131 21.0665 13.4131 21.0665L12.4852 21.0395C12.4852 21.0395 11.7693 21.9963 8.81055 21.9963C5.85285 21.9963 4.56859 21.2385 4.56859 20.3366C4.56859 19.1218 6.45414 18.9568 6.45414 18.9568C6.45414 18.9568 5.25261 18.6409 4.23772 15.9623C4.23772 15.9623 3.53355 17.4071 2.53881 17.4071C2.53881 17.4071 2.12098 17.1721 2.12098 15.8574C2.12098 13.1338 4.19636 11.806 5.09035 10.9902C5.09035 10.9902 4.94189 10.6342 5.02036 10.1933C5.10732 9.70138 5.41805 9.40443 5.41805 9.40443C5.41805 9.40443 5.30139 8.81453 5.73725 8.33861C5.82421 7.01383 6.84016 1.99967 13.2932 1.99967ZM13.2932 0C6.50823 0 4.10092 4.58923 3.6746 7.66672C3.47098 8.04166 3.35539 8.4276 3.30979 8.79153C3.06923 9.22006 2.92517 9.69082 2.88665 10.1743C1.71057 11.1931 0 12.9308 0 15.8564C0 17.887 0.791126 18.7549 1.45817 19.1258L1.95554 19.4058H2.5929C2.49745 19.6917 2.44761 20.0007 2.44761 20.3356C2.44761 21.1955 2.90786 24 8.81055 24C10.974 24 12.324 23.5581 13.1522 23.0862C14.0218 23.3321 16.0558 23.856 17.5935 23.856C21.0613 23.856 23.3022 22.4963 23.3022 20.3906C23.3022 20.0157 23.2226 19.6837 23.0943 19.3868C24.1177 18.9498 25 17.821 25 15.6614C25 13.7667 23.8897 11.779 23.1357 10.6462C23.194 10.3223 23.2141 9.95934 23.1611 9.5844C23.0552 8.89805 22.7937 8.24126 22.3944 7.65872L22.37 7.54174C21.2597 2.53458 18.2023 0 13.2932 0Z" fill="white"/>
</svg>
