<svg width="28" height="24" viewBox="0 0 28 24" fill="none" xmlns="http://www.w3.org/2000/svg">
<path d="M27.9999 15.5761C27.9999 11.6295 24.5063 8.41952 20.1012 8.26166C19.5948 3.63098 15.2911 0 10.0759 0C4.50632 0 0 4.05194 0 9.10355C0 12.103 1.6203 14.7341 4.10121 16.418C4.40501 16.5759 3.1898 19.2069 3.49363 19.3648C4.00002 19.6806 6.02531 17.4178 6.58224 17.6283C7.69618 17.9967 8.86072 18.2071 10.1266 18.2071C10.7342 18.2071 11.3417 18.1545 11.9494 18.0493C13.1139 20.8382 16.1519 22.8378 19.6962 22.8378C20.6582 22.8378 21.6202 22.6799 22.481 22.4168C22.7342 22.3115 24.7089 24.1008 24.962 23.9955C25.4177 23.8376 24.1519 21.7328 24.557 21.4697C26.633 20.1541 28 17.9966 28 15.576L27.9999 15.5761ZM16.6582 13.7342C16.2025 13.7342 15.7975 13.3133 15.7975 12.8397C15.7975 12.3662 16.1519 11.9452 16.6582 11.9452C17.1138 11.9452 17.5189 12.3662 17.5189 12.8397C17.5189 13.3133 17.1644 13.7342 16.6582 13.7342ZM11.443 15.5761C11.443 15.7865 11.443 16.0496 11.4936 16.3128C11.038 16.3654 10.5822 16.4181 10.1265 16.4181C8.96197 16.4181 7.84806 16.2076 6.83544 15.8393C6.73413 15.7866 6.37978 15.6814 6.17722 15.8393C5.72157 16.155 5.16463 16.8916 5.16463 16.8916C5.16463 16.8916 5.36712 16.3653 5.46843 15.6287C5.51907 15.313 5.01277 15.0499 4.9115 14.9973C3.0381 13.6817 1.82288 11.419 1.82288 9.15622C1.82288 5.10428 5.51904 1.8418 10.1266 1.8418C14.4304 1.8418 17.9241 4.68335 18.3798 8.36686C14.4304 8.94567 11.4431 11.9451 11.4431 15.576L11.443 15.5761ZM21.924 13.7342C21.4683 13.7342 21.0632 13.3133 21.0632 12.8397C21.0632 12.3662 21.4177 11.9452 21.924 11.9452C22.3796 11.9452 22.7847 12.3662 22.7847 12.8397C22.7847 13.3133 22.4302 13.7342 21.924 13.7342Z" fill="white"/>
</svg>
