<svg width="111" height="287" viewBox="0 0 111 287" fill="none" xmlns="http://www.w3.org/2000/svg">
<path d="M14.625 23.8625L14.625 190.9H1L1.00001 23.8625H14.625Z" fill="white"/>
<path d="M110 5.96036e-07L110 190.9H96.375V0L110 5.96036e-07Z" fill="white"/>
<path d="M62.3125 23.8625L62.3125 190.9H48.6875L48.6875 23.8625H62.3125Z" fill="white"/>
<path d="M86.1562 23.8625V167.038H72.5312L72.5313 23.8625H86.1562Z" fill="white"/>
<path d="M38.4688 23.8625L38.4687 167.038H24.8438L24.8438 23.8625H38.4688Z" fill="white"/>
<path d="M110 190.9H1L1.00001 177.264H110L110 190.9Z" fill="white"/>
<path d="M86.1562 37.4982L24.8438 37.4982L24.8438 23.8625H86.1562V37.4982Z" fill="white"/>
<path d="M86.1562 13.6357L24.8438 13.6357V4.33324e-07L86.1562 5.79765e-06L86.1562 13.6357Z" fill="white"/>
<path d="M14.625 13.6357H1.00001L1.00001 7.04367e-07L14.625 1.89644e-06V13.6357Z" fill="white"/>
<path d="M1 211.588V208.295H11.8352V211.588H1ZM1 217.929V214.646H4.86058H11.8352V217.929V240.01L12.2674 240.413C15.0278 242.998 18.6624 244.444 22.4444 244.444H53.2013V247.619H19.4581C15.735 247.619 12.1495 246.223 9.4088 243.696L8.7801 243.116L2.10022 247.619V242.89L4.91952 240.698V217.929H1ZM52.7298 223.808H47.7199V235.684C47.7199 236.343 47.9458 236.884 48.4075 237.326C48.8692 237.768 49.4292 237.994 50.0775 237.994H52.7298V241.278H44.2621C43.2994 241.278 42.4644 240.944 41.7571 240.265C41.0498 239.597 40.6962 238.781 40.6962 237.818V223.808H27.1007V227.691C27.1007 230.533 25.8433 233.226 23.6723 235.045L16.0396 241.445V236.372L17.7292 234.632C19.1929 233.118 20.018 231.093 20.018 228.989V223.798H15.4698V220.574H52.7495V223.808H52.7298ZM47.7788 208.246L48.2995 207.439H52.6217L51.1188 209.74C50.3624 210.89 49.0853 211.588 47.7101 211.588H16.4423V208.246H47.7788Z" fill="white"/>
<path d="M63.6239 211.185V207.951V207.263H71.6889C71.3058 207.685 71.0307 208.098 70.8539 208.501C70.6771 208.904 70.5789 209.435 70.5396 210.084V222.068C70.5396 228.626 68.457 235.016 64.5964 240.315L59.3606 247.491V240.629C62.1504 235.871 63.6239 230.454 63.6239 224.939V211.185ZM88.9682 210.084V210.772V247.619H82.0034V211.185V207.263H88.9682H90.1175C89.7344 207.685 89.4495 208.108 89.2531 208.531C89.0664 208.954 88.9682 209.475 88.9682 210.084ZM108.851 210.782V247.629H101.876V211.185V207.263H108.851H110C109.617 207.685 109.332 208.108 109.136 208.531C108.939 208.954 108.851 209.475 108.851 210.084V210.782Z" fill="white"/>
<g opacity="0.56">
<path d="M12.6113 265.581C11.0101 265.581 9.63483 266.495 8.92755 267.822C8.23009 266.465 6.83517 265.522 5.2045 265.522C3.90781 265.522 2.7683 266.121 1.99226 267.045V266.023H1.0001V285.99H1.99226V269.719C1.99226 267.95 3.42647 266.515 5.2045 266.515C6.98252 266.515 8.41673 267.95 8.41673 269.719V285.98H9.40889V270.28H9.41872V269.788C9.41872 268.019 10.8529 266.583 12.631 266.583C14.409 266.583 15.8432 268.019 15.8432 269.788V270.123H15.8334V286H16.8255V270.28H16.8354V269.788C16.8059 267.468 14.9296 265.581 12.6113 265.581Z" fill="white"/>
<path d="M108.998 265.581L105.874 284.378L102.741 265.581H101.582L98.4577 284.378L95.3241 265.581H94.3123L97.721 285.99H99.1945L102.171 268.117L105.138 285.99H106.611L110 265.581H108.998Z" fill="white"/>
<path d="M58.0247 265.581C56.728 265.581 55.5885 266.18 54.8125 267.104V256.801H53.8203V285.99H54.8125V269.788C54.8125 268.019 56.2565 266.583 58.0247 266.583C59.7929 266.583 61.2271 268.019 61.2271 269.788V270.123H61.2173V286H62.2095V270.28H62.2193V269.788C62.2291 267.468 60.343 265.581 58.0247 265.581Z" fill="white"/>
<path d="M24.7432 265.581C22.4249 265.581 20.5388 267.468 20.5388 269.778H21.531C21.531 268.009 22.9652 266.574 24.7432 266.574C26.5114 266.574 27.9456 268.009 27.9456 269.778H28.9378C28.9378 267.468 27.0517 265.581 24.7432 265.581Z" fill="white"/>
<path d="M28.9378 269.778H27.9456L27.9455 273.062H24.9298C22.5034 273.062 20.5486 275.028 20.5486 277.447V282.018C20.5486 284.201 22.3168 285.97 24.4975 285.97H24.9887C26.1675 285.97 27.2186 285.439 27.9455 284.614V285.97H28.9377V282.077C28.9377 282.058 28.9377 282.048 28.9377 282.028L28.9378 269.778ZM27.9455 282.077C27.9161 283.689 26.6096 284.997 24.9887 284.997H24.4975C22.8669 284.997 21.5407 283.67 21.5407 282.038V277.457C21.5407 275.589 23.0633 274.065 24.9298 274.065H27.9455V282.077Z" fill="white"/>
<path d="M87.1903 265.581C84.872 265.581 82.9957 267.458 82.9957 269.778V281.782C82.9957 284.102 84.872 285.98 87.1903 285.98C89.5086 285.98 91.3849 284.102 91.3849 281.782V269.778C91.3849 267.458 89.5086 265.581 87.1903 265.581ZM90.3927 281.782C90.3927 283.552 88.9585 284.987 87.1903 284.987C85.4221 284.987 83.9879 283.552 83.9879 281.782V269.778C83.9879 268.009 85.4221 266.574 87.1903 266.574C88.9585 266.574 90.3927 268.009 90.3927 269.778V281.782Z" fill="white"/>
<path d="M46.0599 265.591C43.7416 265.591 41.8653 267.478 41.8653 269.798V281.792C41.8653 284.112 43.7416 285.99 46.0599 285.99C48.3782 285.99 50.2643 284.112 50.2643 281.792V281.015H49.2721V281.792C49.2721 283.562 47.8379 284.997 46.0599 284.997C44.2917 284.997 42.8575 283.562 42.8575 281.792V269.798C42.8575 268.019 44.2917 266.583 46.0599 266.583C47.8379 266.583 49.2721 268.019 49.2721 269.798V270.565H50.2643V269.798C50.2643 267.478 48.3782 265.591 46.0599 265.591Z" fill="white"/>
<path d="M35.2051 267.262V265.581H34.2129V285.98H35.2051V271.086H35.2345V269.965C35.2345 268.097 36.7571 266.574 38.6334 266.574H39.1442V265.581H38.6334C37.2385 265.581 36.0106 266.249 35.2051 267.262Z" fill="white"/>
<path d="M68.2017 261.176V265.581H64.4983V266.574H68.2017V285.99H69.1939V266.574H72.8973V265.581H69.1939V261.176C69.1939 259.308 70.7165 257.785 72.5928 257.785H72.8973V256.792H72.5928C70.1762 256.792 68.2017 258.758 68.2017 261.176Z" fill="white"/>
<path d="M76.8757 281.595V256.792H75.8836V281.595C75.8836 284.014 77.8581 285.98 80.2746 285.98H80.5791V284.987H80.2746C78.4082 284.997 76.8757 283.463 76.8757 281.595Z" fill="white"/>
<path fill-rule="evenodd" clip-rule="evenodd" d="M67.5205 261.176C67.5205 258.379 69.802 256.11 72.5928 256.11H73.5786V258.466H72.5928C71.0915 258.466 69.8751 259.686 69.8751 261.176V264.899H73.5786V267.255H69.8751V286.672H67.5205V267.255H63.8171V264.899H67.5205V261.176ZM75.2023 256.11H77.557V281.595C77.557 283.088 78.7843 284.313 80.271 284.305L80.2746 284.305L81.2604 284.305V286.662H80.2746C77.4838 286.662 75.2023 284.392 75.2023 281.595V256.11ZM53.1391 256.12H55.4937V265.621C56.2271 265.166 57.0896 264.899 58.0247 264.899C60.7183 264.899 62.9113 267.091 62.9005 269.79L62.9005 269.791L62.9005 270.962H62.8907V286.682H60.536V269.564C60.4226 268.276 59.3412 267.265 58.0247 267.265C56.63 267.265 55.4937 268.398 55.4937 269.788V286.672H53.1391V256.12ZM2.67351 265.562C3.40695 265.107 4.26942 264.84 5.2045 264.84C6.71593 264.84 8.04822 265.535 8.9364 266.606C9.82316 265.568 11.1317 264.899 12.6113 264.899C15.3096 264.899 17.4824 267.093 17.5166 269.78L17.5167 269.788L17.5166 270.962H17.5068V286.682H15.1521V269.564C15.0388 268.277 13.958 267.265 12.631 267.265C11.2278 267.265 10.1 268.397 10.1 269.788V270.962H10.0901V286.662H7.73549V269.719C7.73549 268.328 6.60764 267.196 5.2045 267.196C3.80135 267.196 2.67351 268.328 2.67351 269.719V286.672H0.318848V265.341H2.67351V265.562ZM19.8576 269.778C19.8576 267.091 22.0497 264.899 24.7432 264.899C27.4279 264.899 29.619 267.092 29.619 269.778L29.619 286.652H27.2643V286.042C26.5947 286.428 25.8198 286.652 24.9887 286.652H24.4975C21.9405 286.652 19.8673 284.577 19.8673 282.018V277.447C19.8673 274.653 22.1262 272.38 24.9298 272.38H27.2643L27.2644 269.778C27.2644 268.385 26.1352 267.255 24.7432 267.255C23.3401 267.255 22.2122 268.387 22.2122 269.778V270.46H19.8576V269.778ZM33.5316 264.899H35.8863V265.725C36.6732 265.207 37.6132 264.899 38.6334 264.899H39.8255V267.255H38.6334C37.1321 267.255 35.9158 268.475 35.9158 269.965V271.768H35.8863V286.662H33.5316V264.899ZM82.3145 269.778C82.3145 267.082 84.4958 264.899 87.1903 264.899C89.8849 264.899 92.0661 267.082 92.0661 269.778V281.782C92.0661 284.479 89.8849 286.662 87.1903 286.662C84.4958 286.662 82.3145 284.479 82.3145 281.782V269.778ZM93.5077 264.899H95.9011L98.4566 280.228L101.004 264.899H103.318L105.873 280.228L108.421 264.899H110.804L107.188 286.672H104.56L102.17 272.271L99.7716 286.672H97.1441L93.5077 264.899ZM105.579 284.49L105.715 285.308H106.034L106.17 284.49L105.579 284.49ZM102.454 268.005L102.164 266.262H102.159L101.869 268.005L102.454 268.005ZM98.1611 284.49L98.2978 285.308H98.6174L98.7537 284.49L98.1611 284.49ZM41.1841 269.798C41.1841 267.104 43.3633 264.909 46.0599 264.909C48.7544 264.909 50.9455 267.102 50.9455 269.798V271.247H48.5909V269.798C48.5909 268.395 47.4617 267.265 46.0599 267.265C44.6693 267.265 43.5387 268.394 43.5387 269.798V281.792C43.5387 283.185 44.6679 284.315 46.0599 284.315C47.463 284.315 48.5909 283.184 48.5909 281.792V280.334H50.9455V281.792C50.9455 284.491 48.7524 286.672 46.0599 286.672C43.3653 286.672 41.1841 284.489 41.1841 281.792V269.798ZM87.1903 267.255C85.7984 267.255 84.6692 268.385 84.6692 269.778V281.782C84.6692 283.175 85.7984 284.305 87.1903 284.305C88.5823 284.305 89.7115 283.175 89.7115 281.782V269.778C89.7115 268.385 88.5823 267.255 87.1903 267.255ZM24.9298 274.747C23.4396 274.747 22.222 275.965 22.222 277.457V282.038C22.222 283.293 23.2431 284.315 24.4975 284.315H24.9887C26.2305 284.315 27.2385 283.314 27.2643 282.071V274.747H24.9298Z" fill="white"/>
</g>
<rect x="48.6875" y="23.8623" width="13.625" height="167.038" fill="#F0183F"/>
</svg>
