<svg width="48" height="48" viewBox="0 0 48 48" fill="none" xmlns="http://www.w3.org/2000/svg">
<rect width="48" height="48" rx="9" fill="#35383C"/>
<path d="M13.7526 22.6324L13.7012 22.4722L13.6594 22.2641L13.6316 22.1501V21.6806L13.6814 21.4959L13.732 21.3005L13.7989 21.0955L13.8891 20.8671L14.0074 20.6299L14.1746 20.3923V20.226L14.1909 20.0703L14.2169 19.8586L14.2886 19.6206L14.3546 19.3636L14.4074 19.2457L14.4681 19.1357L14.5464 19.0134L14.6318 18.9223V18.3349L14.6811 18.0322L14.7308 17.6806L14.8192 17.2599L14.9411 16.8222L15.0318 16.5815L15.1215 16.3197L15.2201 16.0755L15.338 15.8137L15.4581 15.5273L15.5962 15.2588L15.7516 14.9724L15.9474 14.6864L16.038 14.5223L16.1344 14.3881L16.3443 14.0854L16.5603 13.7835L16.8054 13.4729L17.0681 13.1706L17.3532 12.8727L17.6506 12.5665L18.0105 12.2361L18.2389 12.035L18.5174 11.818L18.7999 11.6266L19.1052 11.4427L19.3987 11.279L19.7296 11.1435L20.0812 10.9768L20.4305 10.8624L20.779 10.7436L21.1556 10.6256L21.5319 10.5359L21.9274 10.4611L22.3287 10.3964L22.7247 10.3436L23.1202 10.2895L23.5422 10.2666H24.7887L25.2041 10.319L25.6216 10.3687L26.0471 10.4131L26.4422 10.5082L26.8594 10.597L27.251 10.6991L27.68 10.8131L28.0724 10.9521L28.4482 11.111L28.8495 11.279L29.2156 11.4625L29.5715 11.6667L29.9204 11.8915L30.221 12.1005L30.3604 12.2185L30.5065 12.3047L30.7855 12.5414L31.0204 12.7702L31.255 13.0069L31.4833 13.2683L31.6716 13.5217L31.8961 13.7835L32.0523 14.0647L32.2106 14.3146L32.3787 14.6055L32.5182 14.8585L32.7527 15.3939L32.868 15.6707L32.9582 15.9272L33.0484 16.2057L33.1294 16.4675L33.1857 16.6928L33.2587 16.9577L33.3868 17.4307L33.4686 17.8447L33.5219 18.2451L33.5676 18.5672L33.6398 19.0578L33.6561 19.1357L33.7137 19.2241L33.869 19.478L33.9689 19.65L34.0573 19.8291L34.17 20.021L34.2694 20.2511L34.3341 20.4865L34.4045 20.7447L34.4578 21.0096L34.4819 21.1399L34.5044 21.3005V21.44L34.4819 21.5781V21.7502L34.4414 21.9169L34.3675 22.2399L34.2826 22.4031L34.2197 22.5866V22.6324L34.2496 22.6891L34.3341 22.8233L34.7019 23.3676L34.9923 23.7764L35.1314 24.0492L35.3188 24.3479L35.4821 24.6753L35.6704 25.0251L35.8587 25.4185L36.0708 25.8637L36.1904 26.1365L36.2996 26.4032L36.3937 26.6843L36.4865 26.9373L36.5574 27.2031L36.6296 27.4526L36.7207 27.9392L36.7928 28.4364L36.8425 28.8773V29.4995L36.8091 29.7199L36.7616 30.1005L36.6964 30.4424L36.5952 30.7526L36.5574 30.8788L36.4865 31.0311L36.4276 31.1371L36.3484 31.2678L36.2789 31.3501L36.1904 31.4565L36.1113 31.5424L36.0268 31.6158L35.9256 31.6603L35.8345 31.7047L35.7597 31.7294H35.6453L35.5722 31.7047L35.4332 31.6361L35.3694 31.5903L35.3025 31.5424L35.2294 31.4768L35.1555 31.4033L35.0336 31.2678L34.8893 31.0764L34.7758 30.8788L34.6623 30.7209L34.5514 30.537L34.3952 30.2105L34.2196 29.8708L34.199 29.8589H34.1699L34.0986 29.9122L34.0573 30.0015L33.9886 30.1124L33.869 30.4424L33.6886 30.9118L33.4576 31.4768L33.2838 31.7584L33.1016 32.0523L32.8851 32.3827L32.6554 32.7062L32.538 32.8527L32.3954 33.0124L32.0676 33.3345L32.0962 33.3635L32.1406 33.4097L32.3043 33.5056L32.9863 33.8335L33.2838 34.0011L33.5676 34.1639L33.8483 34.3689L34.0986 34.5801L34.2196 34.6756L34.3107 34.7856L34.4044 34.9132L34.4819 35.0514L34.5237 35.1662L34.5747 35.3039L34.5967 35.4232L34.6209 35.5622L34.5967 35.6555V35.7501L34.5747 35.8477L34.5237 35.9371L34.5043 36.007L34.4577 36.092L34.3341 36.2605L34.2196 36.3955L34.1312 36.4967L34.0573 36.5715L33.869 36.7088L33.656 36.8285L33.429 36.9429L33.1856 37.0529L32.9142 37.1594L32.7681 37.2038L32.64 37.2399L32.3246 37.3134L31.999 37.3834L31.6716 37.4529L31.3156 37.511L30.9487 37.5264L30.5725 37.5717H29.4047L28.9836 37.547L28.5916 37.5109L28.1688 37.4529L27.7494 37.408L27.3077 37.3464L26.8796 37.2399L26.462 37.1594L26.0471 37.0406L25.6216 36.8884L25.2041 36.7625L24.9841 36.689L24.7887 36.6195L24.6651 36.5715L24.5423 36.5456H24.1951L23.7938 36.5174L23.591 36.4967L23.3296 36.4677L23.162 36.6195L22.9332 36.7625L22.623 36.9135L22.2798 37.1017L22.0713 37.2038L21.8534 37.2848L21.3725 37.4815L21.1112 37.547L20.837 37.6209L20.4569 37.6949L20.2188 37.7134L19.9672 37.7349L19.7045 37.764L19.3987 37.7754H18.1496L17.4443 37.764L16.7592 37.6949L16.4125 37.6456L16.0777 37.5959L15.7516 37.547L15.4256 37.4815L15.1215 37.3834L14.8192 37.3134L14.5464 37.2038L14.2886 37.1017L14.0479 36.9869L13.8389 36.8615L13.6317 36.7088L13.5609 36.6349L13.4681 36.5456L13.3976 36.4677L13.3342 36.3779L13.2757 36.2886L13.2304 36.1984L13.1649 36.007L13.142 35.908L13.1129 35.798V35.6964L13.142 35.5815V35.4676L13.1649 35.3536V35.1235L13.1759 35.0021L13.2304 34.863L13.2757 34.724L13.358 34.5564L13.4183 34.4917L13.468 34.4169L13.5978 34.258L13.7012 34.1762L13.7989 34.119L13.8891 34.0464L14.0317 34.0011L14.1461 33.9316L14.2886 33.8581L14.451 33.8093L14.6142 33.7595L14.8034 33.7182L14.9825 33.6944L15.195 33.6667L15.4256 33.6491L15.4854 33.6293H15.4986L15.5277 33.6046V33.5765L15.4854 33.5193L15.3631 33.4612L15.0573 33.1963L14.8518 33.0326L14.6142 32.8245L14.3749 32.5917L14.1258 32.2943L13.8389 31.959L13.732 31.7777L13.5903 31.5903L13.468 31.3738L13.358 31.1371L13.2098 30.9118L13.1129 30.6549L12.9977 30.3984L12.8824 30.1124L12.7988 29.8382L12.7191 29.4995L12.6954 29.4871H12.6712L12.6589 29.4629H12.6294L12.581 29.4871L12.5568 29.4995L12.5233 29.5562L12.5114 29.6253L12.4864 29.6869L12.4428 29.7894L12.3029 30.0385L12.2303 30.1894L12.115 30.3209L11.9927 30.4793L11.8576 30.6549L11.7151 30.8106L11.5474 30.9615L11.3925 31.1033L11.2209 31.2159L11.0335 31.3334L10.8531 31.4033L10.6406 31.4566L10.432 31.4768H10.3827L10.3348 31.4566L10.297 31.3738L10.2358 31.3334L10.1557 31.1371L10.1055 31.0311L10.0518 30.8788L10.0074 30.7209L9.98367 30.5651L9.91767 30.2105L9.89258 30.0015V29.316L9.91767 28.8042L9.95901 28.5429L10.0074 28.2736L10.0519 27.9836L10.1306 27.7139L10.2191 27.4033L10.3101 27.1005L10.432 26.789L10.5469 26.492L10.7057 26.1906L10.8531 25.8637L11.0335 25.557L11.2456 25.2262L11.4612 24.9287L11.6864 24.5979L11.8743 24.3673L12.115 24.1033L12.3684 23.8371L12.4864 23.7104L12.6294 23.5678L12.8371 23.3878L13.0504 23.2044L13.3976 22.8933L13.6594 22.7019L13.7526 22.6324Z" fill="white"/>
</svg>
