<svg width="48" height="48" viewBox="0 0 48 48" fill="none" xmlns="http://www.w3.org/2000/svg">
<rect width="48" height="48" rx="9" fill="#35383C"/>
<path d="M33.9705 21.7631C31.9032 21.7631 29.8925 21.0699 28.2387 19.7877V28.7328C28.2387 33.3006 24.8277 37 20.6194 37C16.411 37 13 33.3006 13 28.7328C13 24.165 16.411 20.4656 20.6194 20.4656C21.0402 20.4656 21.4487 20.5037 21.8474 20.5748V25.3127C21.466 25.1578 21.0599 25.0791 20.6514 25.0791C18.7736 25.0791 17.2502 26.7295 17.2502 28.7684C17.2502 30.8047 18.7736 32.4576 20.6514 32.4576C22.5267 32.4576 24.05 30.8047 24.05 28.7684V11H28.3002C28.3002 14.415 30.8523 17.1826 34 17.1826V21.7605L33.9705 21.7631Z" fill="white"/>
</svg>
