<svg width="153" height="151" viewBox="0 0 153 151" fill="none" xmlns="http://www.w3.org/2000/svg">
<path d="M26.5455 48.064L26.8483 48.3253L27.0707 48.0676L26.8519 47.8069L26.5455 48.064ZM22.6915 43.472L22.9979 43.2149L22.7055 42.8664L22.3973 43.201L22.6915 43.472ZM22.2405 29.573L21.9699 29.8675L22.2806 30.1531L22.5491 29.8275L22.2405 29.573ZM26.0945 24.899L26.4031 25.1535L26.6321 24.8758L26.3801 24.6189L26.0945 24.899ZM16.5825 52.974C20.6724 52.974 24.1871 51.4089 26.8483 48.3253L26.2427 47.8027C23.7379 50.7051 20.4466 52.174 16.5825 52.174V52.974ZM26.8519 47.8069L22.9979 43.2149L22.3851 43.7291L26.2391 48.3211L26.8519 47.8069ZM22.3973 43.201C21.0114 44.7057 19.1427 45.86 16.8695 45.86V46.66C19.4343 46.66 21.5016 45.3543 22.9857 43.743L22.3973 43.201ZM16.8695 45.86C14.8388 45.86 13.1854 45.0345 12.0281 43.4979C10.8615 41.9487 10.1765 39.6447 10.1765 36.666H9.3765C9.3765 39.7553 10.0855 42.2483 11.3891 43.9791C12.7021 45.7225 14.5952 46.66 16.8695 46.66V45.86ZM10.1765 36.666C10.1765 30.8546 13.3146 27.595 16.9515 27.595V26.795C12.7164 26.795 9.3765 30.5873 9.3765 36.666H10.1765ZM16.9515 27.595C18.9821 27.595 20.4883 28.5061 21.9699 29.8675L22.5112 29.2785C20.9587 27.8519 19.2669 26.795 16.9515 26.795V27.595ZM22.5491 29.8275L26.4031 25.1535L25.7859 24.6445L21.9319 29.3185L22.5491 29.8275ZM26.3801 24.6189C24.2306 22.4273 20.9347 20.522 16.8285 20.522V21.322C20.6763 21.322 23.7764 23.1067 25.8089 25.1791L26.3801 24.6189ZM16.8285 20.522C12.8527 20.522 9.10897 22.0164 6.35935 24.8241C3.6079 27.6337 1.8735 31.7355 1.8735 36.912H2.6735C2.6735 31.9205 4.3421 28.0273 6.93091 25.3839C9.52153 22.7386 13.0553 21.322 16.8285 21.322V20.522ZM1.8735 36.912C1.8735 42.1653 3.54329 46.1885 6.23846 48.8995C8.93173 51.6087 12.6159 52.974 16.5825 52.974V52.174C12.8001 52.174 9.32978 50.8743 6.8058 48.3355C4.28372 45.7985 2.6735 41.9907 2.6735 36.912H1.8735ZM44.9145 52.974C49.177 52.974 52.7854 51.4381 55.3243 48.597C57.8594 45.7603 59.2955 41.6598 59.2955 36.584H58.4955C58.4955 41.5122 57.1025 45.4067 54.7278 48.064C52.357 50.7169 48.975 52.174 44.9145 52.174V52.974ZM59.2955 36.584C59.2955 31.5281 57.859 27.5071 55.3206 24.7461C52.7791 21.9819 49.1709 20.522 44.9145 20.522V21.322C48.9811 21.322 52.3633 22.7116 54.7316 25.2876C57.103 27.8669 58.4955 31.6769 58.4955 36.584H59.2955ZM44.9145 20.522C40.6589 20.522 37.0505 21.9711 34.5086 24.7305C31.9698 27.4867 30.5335 31.5079 30.5335 36.584H31.3335C31.3335 31.6561 32.7262 27.8463 35.097 25.2725C37.465 22.7019 40.847 21.322 44.9145 21.322V20.522ZM30.5335 36.584C30.5335 41.6598 31.9695 45.7603 34.5046 48.597C37.0435 51.4381 40.652 52.974 44.9145 52.974V52.174C40.854 52.174 37.4719 50.7169 35.1011 48.064C32.7264 45.4067 31.3335 41.5122 31.3335 36.584H30.5335ZM44.9145 45.86C43.0489 45.86 41.5502 45.0024 40.5015 43.4295C39.4426 41.8411 38.8365 39.5086 38.8365 36.584H38.0365C38.0365 39.6044 38.6603 42.1099 39.8359 43.8733C41.0218 45.6521 42.762 46.66 44.9145 46.66V45.86ZM38.8365 36.584C38.8365 33.6801 39.4425 31.4228 40.4973 29.9036C41.5407 28.4007 43.0382 27.595 44.9145 27.595V26.795C42.7728 26.795 41.0312 27.7318 39.8401 29.4474C38.6604 31.1467 38.0365 33.5839 38.0365 36.584H38.8365ZM44.9145 27.595C46.7913 27.595 48.2995 28.4012 49.3531 29.905C50.4176 31.4244 51.0335 33.6813 51.0335 36.584H51.8335C51.8335 33.5827 51.1988 31.1451 50.0083 29.446C48.8069 27.7313 47.0557 26.795 44.9145 26.795V27.595ZM51.0335 36.584C51.0335 39.5074 50.4175 41.8396 49.3488 43.4281C48.29 45.0018 46.7806 45.86 44.9145 45.86V46.66C47.0664 46.66 48.8164 45.6527 50.0126 43.8747C51.1989 42.1114 51.8335 39.6056 51.8335 36.584H51.0335ZM67.6339 52H67.2339V52.4H67.6339V52ZM74.1939 52V52.4H74.5939V52H74.1939ZM73.2509 30.967V30.567H72.7986L72.8539 31.0159L73.2509 30.967ZM73.4149 30.967L73.794 30.8392L73.7022 30.567H73.4149V30.967ZM75.8749 38.265L75.4957 38.3928L75.4999 38.4042L75.8749 38.265ZM80.0159 49.417L79.6409 49.5562L79.7378 49.817H80.0159V49.417ZM84.0339 49.417V49.817H84.313L84.4093 49.555L84.0339 49.417ZM88.1339 38.265L88.5094 38.403L88.5117 38.3966L88.1339 38.265ZM90.6759 30.967V30.567H90.3917L90.2982 30.8354L90.6759 30.967ZM90.8399 30.967L91.2369 31.0159L91.2923 30.567H90.8399V30.967ZM89.8969 52H89.4969V52.4H89.8969V52ZM96.5799 52V52.4H96.9799V52H96.5799ZM96.5799 21.496H96.9799V21.096H96.5799V21.496ZM88.6259 21.496V21.096H88.3435L88.249 21.3621L88.6259 21.496ZM83.9519 34.657L83.5748 34.5231L83.5716 34.5332L83.9519 34.657ZM82.2709 40.233V40.633H82.5612L82.6512 40.357L82.2709 40.233ZM82.0659 40.233L81.6832 40.3495L81.7695 40.633H82.0659V40.233ZM80.3849 34.657L80.7626 34.5252L80.7603 34.519L80.3849 34.657ZM75.5469 21.496L75.9223 21.358L75.826 21.096H75.5469V21.496ZM67.6339 21.496V21.096H67.2339V21.496H67.6339ZM67.6339 52.4H74.1939V51.6H67.6339V52.4ZM74.5939 52V41.545H73.7939V52H74.5939ZM74.5939 41.545C74.5939 38.4805 74.0156 33.9004 73.6479 30.9181L72.8539 31.0159C73.2242 34.0196 73.7939 38.5415 73.7939 41.545H74.5939ZM73.2509 31.367H73.4149V30.567H73.2509V31.367ZM73.0359 31.0948L75.4959 38.3928L76.254 38.1372L73.794 30.8392L73.0359 31.0948ZM75.4999 38.4042L79.6409 49.5562L80.3909 49.2778L76.2499 38.1258L75.4999 38.4042ZM80.0159 49.817H84.0339V49.017H80.0159V49.817ZM84.4093 49.555L88.5093 38.403L87.7585 38.127L83.6585 49.279L84.4093 49.555ZM88.5117 38.3966L91.0536 31.0986L90.2982 30.8354L87.7562 38.1334L88.5117 38.3966ZM90.6759 31.367H90.8399V30.567H90.6759V31.367ZM90.4429 30.9181C90.0752 33.9004 89.4969 38.4805 89.4969 41.545H90.2969C90.2969 38.5415 90.8666 34.0196 91.2369 31.0159L90.4429 30.9181ZM89.4969 41.545V52H90.2969V41.545H89.4969ZM89.8969 52.4H96.5799V51.6H89.8969V52.4ZM96.9799 52V21.496H96.1799V52H96.9799ZM96.5799 21.096H88.6259V21.896H96.5799V21.096ZM88.249 21.3621L83.575 34.5231L84.3288 34.7909L89.0028 21.6299L88.249 21.3621ZM83.5716 34.5332C83.2821 35.4221 83.0138 36.3512 82.7426 37.2876C82.4707 38.2263 82.1957 39.1733 81.8906 40.109L82.6512 40.357C82.9611 39.4067 83.2396 38.4472 83.511 37.5101C83.7831 36.5708 84.0477 35.6549 84.3323 34.7808L83.5716 34.5332ZM82.2709 39.833H82.0659V40.633H82.2709V39.833ZM82.4486 40.1165C81.8826 38.2569 81.3803 36.2961 80.7626 34.5252L80.0072 34.7887C80.6195 36.5439 81.1012 38.4371 81.6832 40.3495L82.4486 40.1165ZM80.7603 34.519L75.9223 21.358L75.1715 21.634L80.0095 34.795L80.7603 34.519ZM75.5469 21.096H67.6339V21.896H75.5469V21.096ZM67.2339 21.496V52H68.0339V21.496H67.2339ZM106.664 52H106.264V52.4H106.664V52ZM114.003 52V52.4H114.403V52H114.003ZM114.003 21.496H114.403V21.096H114.003V21.496ZM106.664 21.496V21.096H106.264V21.496H106.664ZM106.664 52.4H114.003V51.6H106.664V52.4ZM114.403 52V21.496H113.603V52H114.403ZM114.003 21.096H106.664V21.896H114.003V21.096ZM106.264 21.496V52H107.064V21.496H106.264ZM124.073 52H123.673V52.4H124.073V52ZM131.043 52V52.4H131.443V52H131.043ZM130.1 30.598V30.198H129.66L129.702 30.6364L130.1 30.598ZM130.305 30.598L130.67 30.4345L130.564 30.198H130.305V30.598ZM133.298 37.281L132.933 37.4445L132.937 37.4541L132.942 37.4634L133.298 37.281ZM140.842 52L140.486 52.1824L140.598 52.4H140.842V52ZM148.304 52V52.4H148.704V52H148.304ZM148.304 21.496H148.704V21.096H148.304V21.496ZM141.334 21.496V21.096H140.934V21.496H141.334ZM142.318 42.857V43.257H142.772L142.715 42.8068L142.318 42.857ZM142.113 42.857L141.747 43.0188L141.853 43.257H142.113V42.857ZM139.12 36.092L139.486 35.9302L139.481 35.9187L139.475 35.9076L139.12 36.092ZM131.535 21.496L131.89 21.3116L131.778 21.096H131.535V21.496ZM124.073 21.496V21.096H123.673V21.496H124.073ZM124.073 52.4H131.043V51.6H124.073V52.4ZM131.443 52V41.873H130.643V52H131.443ZM131.443 41.873C131.443 38.1575 130.823 33.9324 130.498 30.5596L129.702 30.6364C130.033 34.0696 130.643 38.2085 130.643 41.873H131.443ZM130.1 30.998H130.305V30.198H130.1V30.998ZM129.94 30.7615L132.933 37.4445L133.663 37.1175L130.67 30.4345L129.94 30.7615ZM132.942 37.4634L140.486 52.1824L141.198 51.8176L133.654 37.0986L132.942 37.4634ZM140.842 52.4H148.304V51.6H140.842V52.4ZM148.704 52V21.496H147.904V52H148.704ZM148.304 21.096H141.334V21.896H148.304V21.096ZM140.934 21.496V31.582H141.734V21.496H140.934ZM140.934 31.582C140.934 35.2616 141.512 39.6763 141.921 42.9072L142.715 42.8068C142.304 39.5597 141.734 35.2004 141.734 31.582H140.934ZM142.318 42.457H142.113V43.257H142.318V42.457ZM142.479 42.6952L139.486 35.9302L138.754 36.2538L141.747 43.0188L142.479 42.6952ZM139.475 35.9076L131.89 21.3116L131.18 21.6804L138.765 36.2764L139.475 35.9076ZM131.535 21.096H124.073V21.896H131.535V21.096ZM123.673 21.496V52H124.473V21.496H123.673ZM29.0215 115.657L29.1708 115.286L29.1694 115.285L29.0215 115.657ZM25.2085 114.14L25.3564 113.768L25.3551 113.768L25.2085 114.14ZM30.4975 110.532L30.2565 110.851L30.5679 111.086L30.8107 110.781L30.4975 110.532ZM34.1465 105.94L34.4597 106.189L34.6817 105.909L34.4294 105.657L34.1465 105.94ZM19.3455 119.511L19.5008 119.142L19.4933 119.139L19.3455 119.511ZM23.2405 121.151L23.396 120.782L23.3957 120.782L23.2405 121.151ZM16.1475 124.144L16.4064 123.839L16.0964 123.576L15.8384 123.89L16.1475 124.144ZM12.0065 129.187L11.6974 128.933L11.4577 129.225L11.7354 129.481L12.0065 129.187ZM23.4045 133.974C30.9565 133.974 35.4485 129.372 35.4485 124.021H34.6485C34.6485 128.838 30.6125 133.174 23.4045 133.174V133.974ZM35.4485 124.021C35.4485 121.794 34.8636 119.994 33.7681 118.552C32.6763 117.114 31.101 116.062 29.1708 115.286L28.8723 116.028C30.7141 116.769 32.1523 117.747 33.131 119.035C34.1059 120.319 34.6485 121.943 34.6485 124.021H35.4485ZM29.1694 115.285L25.3564 113.768L25.0606 114.512L28.8737 116.029L29.1694 115.285ZM25.3551 113.768C23.981 113.227 22.8687 112.812 22.0877 112.329C21.324 111.856 20.9755 111.379 20.9755 110.737H20.1755C20.1755 111.776 20.7905 112.467 21.6668 113.009C22.5258 113.541 23.73 113.987 25.0619 114.512L25.3551 113.768ZM20.9755 110.737C20.9755 110.048 21.2594 109.537 21.78 109.181C22.3196 108.813 23.1419 108.595 24.2245 108.595V107.795C23.0521 107.795 22.05 108.028 21.3288 108.521C20.5887 109.026 20.1755 109.786 20.1755 110.737H20.9755ZM24.2245 108.595C26.4915 108.595 28.2949 109.37 30.2565 110.851L30.7386 110.213C28.6821 108.66 26.7135 107.795 24.2245 107.795V108.595ZM30.8107 110.781L34.4597 106.189L33.8334 105.691L30.1844 110.283L30.8107 110.781ZM34.4294 105.657C31.6822 102.91 27.846 101.522 24.2245 101.522V102.322C27.655 102.322 31.2808 103.64 33.8637 106.223L34.4294 105.657ZM24.2245 101.522C17.5887 101.522 12.7545 105.743 12.7545 111.147H13.5545C13.5545 106.301 17.9044 102.322 24.2245 102.322V101.522ZM12.7545 111.147C12.7545 115.797 15.9104 118.576 19.1978 119.883L19.4933 119.139C16.3846 117.904 13.5545 115.353 13.5545 111.147H12.7545ZM19.1903 119.88L23.0853 121.52L23.3957 120.782L19.5007 119.142L19.1903 119.88ZM23.085 121.52C24.4224 122.084 25.4472 122.485 26.1541 122.959C26.4991 123.191 26.7432 123.425 26.9023 123.68C27.0582 123.931 27.1455 124.223 27.1455 124.595H27.9455C27.9455 124.086 27.8227 123.645 27.5814 123.257C27.3433 122.875 27.0032 122.566 26.5999 122.295C25.8104 121.765 24.6826 121.325 23.396 120.782L23.085 121.52ZM27.1455 124.595C27.1455 125.297 26.8815 125.836 26.3417 126.215C25.7806 126.61 24.8809 126.86 23.5685 126.86V127.66C24.9621 127.66 26.0509 127.398 26.8018 126.87C27.574 126.327 27.9455 125.533 27.9455 124.595H27.1455ZM23.5685 126.86C21.272 126.86 18.5314 125.643 16.4064 123.839L15.8886 124.449C18.1096 126.335 21.027 127.66 23.5685 127.66V126.86ZM15.8384 123.89L11.6974 128.933L12.3157 129.441L16.4567 124.398L15.8384 123.89ZM11.7354 129.481C14.9721 132.466 19.3353 133.974 23.4045 133.974V133.174C19.5197 133.174 15.3549 131.73 12.2777 128.893L11.7354 129.481ZM55.7811 133.974C60.0436 133.974 63.652 132.438 66.1909 129.597C68.7261 126.76 70.1621 122.66 70.1621 117.584H69.3621C69.3621 122.512 67.9691 126.407 65.5944 129.064C63.2236 131.717 59.8416 133.174 55.7811 133.174V133.974ZM70.1621 117.584C70.1621 112.528 68.7256 108.507 66.1871 105.746C63.6457 102.982 60.0375 101.522 55.7811 101.522V102.322C59.8477 102.322 63.2299 103.712 65.5982 106.288C67.9696 108.867 69.3621 112.677 69.3621 117.584H70.1621ZM55.7811 101.522C51.5255 101.522 47.9171 102.971 45.3752 105.73C42.8364 108.487 41.4001 112.508 41.4001 117.584H42.2001C42.2001 112.656 43.5928 108.846 45.9636 106.273C48.3316 103.702 51.7136 102.322 55.7811 102.322V101.522ZM41.4001 117.584C41.4001 122.66 42.8361 126.76 45.3712 129.597C47.9101 132.438 51.5186 133.974 55.7811 133.974V133.174C51.7206 133.174 48.3385 131.717 45.9677 129.064C43.593 126.407 42.2001 122.512 42.2001 117.584H41.4001ZM55.7811 126.86C53.9155 126.86 52.4168 126.002 51.3681 124.429C50.3092 122.841 49.7031 120.509 49.7031 117.584H48.9031C48.9031 120.604 49.5269 123.11 50.7025 124.873C51.8884 126.652 53.6286 127.66 55.7811 127.66V126.86ZM49.7031 117.584C49.7031 114.68 50.3091 112.423 51.3639 110.904C52.4073 109.401 53.9048 108.595 55.7811 108.595V107.795C53.6394 107.795 51.8978 108.732 50.7067 110.447C49.527 112.147 48.9031 114.584 48.9031 117.584H49.7031ZM55.7811 108.595C57.6579 108.595 59.1661 109.401 60.2197 110.905C61.2842 112.424 61.9001 114.681 61.9001 117.584H62.7001C62.7001 114.583 62.0654 112.145 60.8749 110.446C59.6735 108.731 57.9223 107.795 55.7811 107.795V108.595ZM61.9001 117.584C61.9001 120.507 61.2841 122.84 60.2154 124.428C59.1566 126.002 57.6472 126.86 55.7811 126.86V127.66C57.933 127.66 59.683 126.653 60.8792 124.875C62.0655 123.111 62.7001 120.606 62.7001 117.584H61.9001ZM91.0875 133.974C95.35 133.974 98.9584 132.438 101.497 129.597C104.032 126.76 105.469 122.66 105.469 117.584H104.669C104.669 122.512 103.276 126.407 100.901 129.064C98.5301 131.717 95.148 133.174 91.0875 133.174V133.974ZM105.469 117.584C105.469 112.528 104.032 108.507 101.494 105.746C98.9522 102.982 95.3439 101.522 91.0875 101.522V102.322C95.1541 102.322 98.5363 103.712 100.905 106.288C103.276 108.867 104.669 112.677 104.669 117.584H105.469ZM91.0875 101.522C86.832 101.522 83.2235 102.971 80.6817 105.73C78.1428 108.487 76.7065 112.508 76.7065 117.584H77.5065C77.5065 112.656 78.8992 108.846 81.2701 106.273C83.638 103.702 87.0201 102.322 91.0875 102.322V101.522ZM76.7065 117.584C76.7065 122.66 78.1425 126.76 80.6776 129.597C83.2166 132.438 86.825 133.974 91.0875 133.974V133.174C87.027 133.174 83.6449 131.717 81.2741 129.064C78.8995 126.407 77.5065 122.512 77.5065 117.584H76.7065ZM91.0875 126.86C89.222 126.86 87.7232 126.002 86.6746 124.429C85.6157 122.841 85.0095 120.509 85.0095 117.584H84.2095C84.2095 120.604 84.8333 123.11 86.0089 124.873C87.1948 126.652 88.9351 127.66 91.0875 127.66V126.86ZM85.0095 117.584C85.0095 114.68 85.6156 112.423 86.6703 110.904C87.7138 109.401 89.2112 108.595 91.0875 108.595V107.795C88.9458 107.795 87.2043 108.732 86.0132 110.447C84.8334 112.147 84.2095 114.584 84.2095 117.584H85.0095ZM91.0875 108.595C92.9643 108.595 94.4725 109.401 95.5262 110.905C96.5907 112.424 97.2065 114.681 97.2065 117.584H98.0065C98.0065 114.583 97.3718 112.145 96.1814 110.446C94.98 108.731 93.2287 107.795 91.0875 107.795V108.595ZM97.2065 117.584C97.2065 120.507 96.5906 122.84 95.5219 124.428C94.4631 126.002 92.9536 126.86 91.0875 126.86V127.66C93.2394 127.66 94.9894 126.653 96.1856 124.875C97.372 123.111 98.0065 120.606 98.0065 117.584H97.2065ZM113.807 133H113.407V133.4H113.807V133ZM120.777 133V133.4H121.177V133H120.777ZM119.834 111.598V111.198H119.394L119.436 111.636L119.834 111.598ZM120.039 111.598L120.404 111.435L120.298 111.198H120.039V111.598ZM123.032 118.281L122.667 118.444L122.671 118.454L122.676 118.463L123.032 118.281ZM130.576 133L130.22 133.182L130.331 133.4H130.576V133ZM138.038 133V133.4H138.438V133H138.038ZM138.038 102.496H138.438V102.096H138.038V102.496ZM131.068 102.496V102.096H130.668V102.496H131.068ZM132.052 123.857V124.257H132.506L132.449 123.807L132.052 123.857ZM131.847 123.857L131.481 124.019L131.587 124.257H131.847V123.857ZM128.854 117.092L129.22 116.93L129.215 116.919L129.209 116.908L128.854 117.092ZM121.269 102.496L121.624 102.312L121.512 102.096H121.269V102.496ZM113.807 102.496V102.096H113.407V102.496H113.807ZM113.807 133.4H120.777V132.6H113.807V133.4ZM121.177 133V122.873H120.377V133H121.177ZM121.177 122.873C121.177 119.157 120.557 114.932 120.232 111.56L119.436 111.636C119.767 115.07 120.377 119.209 120.377 122.873H121.177ZM119.834 111.998H120.039V111.198H119.834V111.998ZM119.674 111.761L122.667 118.444L123.397 118.118L120.404 111.435L119.674 111.761ZM122.676 118.463L130.22 133.182L130.932 132.818L123.388 118.099L122.676 118.463ZM130.576 133.4H138.038V132.6H130.576V133.4ZM138.438 133V102.496H137.638V133H138.438ZM138.038 102.096H131.068V102.896H138.038V102.096ZM130.668 102.496V112.582H131.468V102.496H130.668ZM130.668 112.582C130.668 116.262 131.246 120.676 131.655 123.907L132.449 123.807C132.038 120.56 131.468 116.2 131.468 112.582H130.668ZM132.052 123.457H131.847V124.257H132.052V123.457ZM132.213 123.695L129.22 116.93L128.488 117.254L131.481 124.019L132.213 123.695ZM129.209 116.908L121.624 102.312L120.914 102.68L128.499 117.276L129.209 116.908ZM121.269 102.096H113.807V102.896H121.269V102.096ZM113.407 102.496V133H114.207V102.496H113.407Z" fill="black" fill-opacity="0.09"/>
<path d="M43.47 46.7H46.56V45.26H49.32V47.15H52.5V45.26H55.41V42.23H52.5V39.59H49.32V42.23H46.56V39.59H43.47V42.23H40.23V45.26H43.47V46.7ZM54.33 64.58C54.78 62.99 54.87 59.42 54.93 51.41C55.35 52.16 55.77 52.94 55.95 53.42C56.25 53.03 56.58 52.61 56.85 52.19C57.48 54.95 58.26 57.5 59.28 59.78C58.05 61.7 56.43 63.32 54.33 64.58ZM62.88 47.18C62.52 50.54 61.98 53.48 61.08 56.03C60.09 53.57 59.37 50.81 58.92 47.87C59.01 47.63 59.04 47.42 59.1 47.18H62.88ZM47.64 55.91V58.82H44.91V55.91H47.64ZM67.89 47.18V43.88H59.97C60.24 42.59 60.48 41.27 60.66 39.92L57.36 39.44C56.97 43.01 56.28 46.4 54.93 48.92V48.83H46.11C46.26 48.41 46.38 48.02 46.5 47.6L43.38 46.67C42.6 49.34 41.19 51.89 39.51 53.54C40.08 54.38 40.92 56.18 41.16 56.96C41.55 56.57 41.94 56.12 42.33 55.67V63.53H44.91V61.43H50.01V53.3H43.95C44.25 52.79 44.55 52.31 44.82 51.77H51.6C51.57 59.69 51.48 62.51 51.09 63.17C50.88 63.53 50.64 63.62 50.25 63.62C49.74 63.62 48.9 63.62 47.94 63.53C48.45 64.4 48.81 65.72 48.84 66.68C50.07 66.68 51.24 66.68 52.05 66.53C52.89 66.38 53.49 66.08 54.06 65.18C54.15 65.09 54.21 64.91 54.27 64.73C54.96 65.45 55.95 66.95 56.28 67.67C58.26 66.41 59.85 64.91 61.17 63.11C62.34 64.85 63.81 66.26 65.52 67.37C66.06 66.44 67.14 65.12 67.92 64.46C65.97 63.38 64.38 61.79 63.12 59.9C64.77 56.42 65.76 52.22 66.33 47.18H67.89ZM92.1 44.54C91.05 43.25 88.89 41.36 87.27 40.04L84.99 42.2C86.58 43.64 88.71 45.71 89.64 47.03L92.1 44.54ZM90.66 60.44V48.8H83.58V52.22H87.24V61.49C87.24 62.87 86.37 63.89 85.74 64.34C86.31 64.97 87.18 66.5 87.48 67.34C87.99 66.62 88.95 65.78 94.41 61.55C94.02 60.83 93.48 59.42 93.24 58.46L90.66 60.44ZM98.25 60.89V59.18H106.02V60.89H98.25ZM106.02 55.37V56.9H98.25V55.37H106.02ZM109.41 52.76H94.92V67.64H98.25V63.26H106.02V64.13C106.02 64.49 105.87 64.61 105.48 64.61C105.09 64.61 103.65 64.64 102.42 64.55C102.84 65.42 103.26 66.71 103.41 67.58C105.48 67.61 106.95 67.58 108 67.07C109.11 66.59 109.41 65.75 109.41 64.19V52.76ZM103.86 49.07V47.78H109.62V45.38H103.86V44.18H110.55V41.63H103.86V39.59H100.32V41.63H93.81V44.18H100.32V45.38H94.62V47.78H100.32V49.07H92.91V51.62H111.45V49.07H103.86ZM45.9 101.34H49.62V103.38H45.9V101.34ZM49.62 92.25V93.99H45.9V92.25H49.62ZM45.9 96.72H49.62V98.61H45.9V96.72ZM54.72 103.38H52.89V92.25H54.93V89.13H52.89V85.95H49.62V89.13H45.9V85.95H42.69V89.13H40.35V92.25H42.69V103.38H39.99V106.5H54.72V103.38ZM43.71 106.71C42.87 108.51 41.31 110.4 39.75 111.57C40.56 112.05 41.94 113.07 42.6 113.7C44.22 112.23 45.99 109.89 47.04 107.7L43.71 106.71ZM59.25 100.5C59.28 99.57 59.28 98.7 59.28 97.92V96.81H63.6V100.5H59.25ZM63.6 90.15V93.66H59.28V90.15H63.6ZM67.05 86.91H55.95V97.92C55.95 101.82 55.8 106.89 54.06 110.64C53.31 109.41 51.9 107.76 50.82 106.56L48.12 108.03C49.29 109.41 50.73 111.39 51.33 112.56L53.82 111.15C53.73 111.33 53.61 111.48 53.52 111.66C54.3 111.96 55.77 113.04 56.34 113.67C57.96 110.97 58.71 107.22 59.04 103.68H63.6V109.59C63.6 110.07 63.45 110.22 63 110.22C62.58 110.22 61.14 110.25 59.85 110.16C60.3 111.06 60.75 112.62 60.87 113.55C63.09 113.58 64.62 113.49 65.67 112.92C66.72 112.35 67.05 111.42 67.05 109.65V86.91ZM89.58 85.65C88.35 87.63 85.77 90.09 83.4 91.5C83.97 92.28 84.81 93.72 85.17 94.53C87.96 92.73 90.99 89.79 92.97 87.03L89.58 85.65ZM94.32 105.42C95.61 107.01 97.08 109.23 97.62 110.67L100.74 108.99C100.11 107.52 98.58 105.42 97.23 103.89L94.32 105.42ZM111.6 98.1V94.86H103.71V92.25H110.16V89.01H103.71V85.74H100.17V89.01H94.02V92.25H100.17V94.86H92.61C92.91 94.41 93.18 93.96 93.45 93.54L90.33 92.19C88.65 95.1 85.74 98.04 83.13 99.9C83.64 100.77 84.54 102.78 84.78 103.59C85.68 102.87 86.58 102.06 87.51 101.13V113.58H90.93V97.2C91.44 96.54 91.89 95.91 92.34 95.28V98.1H104.25V100.47H92.64V103.71H104.25V109.77C104.25 110.19 104.1 110.28 103.65 110.28C103.17 110.31 101.52 110.31 100.05 110.25C100.5 111.21 101.01 112.62 101.16 113.61C103.41 113.61 105.09 113.55 106.26 113.04C107.46 112.5 107.79 111.63 107.79 109.83V103.71H111.33V100.47H107.79V98.1H111.6Z" fill="black" fill-opacity="0.87"/>
</svg>
