<svg width="48" height="48" viewBox="0 0 48 48" fill="none" xmlns="http://www.w3.org/2000/svg">
<rect width="48" height="48" rx="9" fill="#35383C"/>
<path d="M30.3392 18.8666C30.7189 18.8666 31.0934 18.8937 31.4642 18.9331C30.4539 14.3821 25.4226 11 19.6801 11C13.2596 11 8 15.2332 8 20.608C8 23.71 9.75022 26.2578 12.6739 28.2338L11.5058 31.6331L15.5885 29.6522C17.0503 29.9315 18.2219 30.2195 19.6801 30.2195C20.0465 30.2195 20.4092 30.202 20.7702 30.174C20.5418 29.4193 20.4092 28.6279 20.4092 27.8075C20.4093 22.8721 24.7911 18.8666 30.3392 18.8666ZM24.0602 15.8031C24.9398 15.8031 25.522 16.3635 25.522 17.2136C25.522 18.0602 24.9398 18.6276 24.0602 18.6276C23.1842 18.6276 22.3064 18.0602 22.3064 17.2136C22.3064 16.3635 23.1842 15.8031 24.0602 15.8031ZM15.8859 18.6275C15.0099 18.6275 14.1267 18.0602 14.1267 17.2136C14.1267 16.3634 15.0099 15.8031 15.8859 15.8031C16.761 15.8031 17.3441 16.3634 17.3441 17.2136C17.3441 18.0602 16.761 18.6275 15.8859 18.6275ZM41 27.6718C41 23.1549 36.327 19.4733 31.079 19.4733C25.522 19.4733 21.1455 23.1549 21.1455 27.6718C21.1455 32.1952 25.522 35.8689 31.079 35.8689C32.2417 35.8689 33.4151 35.5869 34.583 35.3033L37.7871 37L36.9083 34.1773C39.2534 32.4753 41 30.2195 41 27.6718ZM27.858 26.2578C27.2767 26.2578 26.69 25.6983 26.69 25.1274C26.69 24.5645 27.2767 23.998 27.858 23.998C28.7412 23.998 29.3198 24.5645 29.3198 25.1274C29.3198 25.6983 28.7412 26.2578 27.858 26.2578ZM34.2821 26.2578C33.7053 26.2578 33.1222 25.6983 33.1222 25.1274C33.1222 24.5645 33.7053 23.998 34.2821 23.998C35.1581 23.998 35.7439 24.5645 35.7439 25.1274C35.7439 25.6983 35.1581 26.2578 34.2821 26.2578Z" fill="white"/>
</svg>
