<svg width="82" height="35" viewBox="0 0 82 35" fill="none" xmlns="http://www.w3.org/2000/svg">
<path d="M30 1.9225V0.396344H35.0409V1.9225H30ZM30 4.86091V3.33931H31.7961H35.0409V4.86091V15.093L35.2419 15.2797C36.5262 16.4779 38.2171 17.1476 39.9766 17.1476H54.2857V18.619H38.5873C36.8552 18.619 35.1871 17.9721 33.912 16.8013L33.6195 16.5325L30.5119 18.619V16.4278L31.8235 15.4119V4.86091H30ZM54.0663 7.5852H51.7356V13.0885C51.7356 13.3937 51.8407 13.6442 52.0555 13.8493C52.2703 14.0543 52.5308 14.159 52.8324 14.159H54.0663V15.6806H50.1269C49.679 15.6806 49.2906 15.5257 48.9615 15.2114C48.6325 14.9016 48.4679 14.5235 48.4679 14.077V7.5852H42.1429V9.38469C42.1429 10.7013 41.5579 11.9495 40.5479 12.7923L36.9969 15.7581V13.4074L37.7829 12.601C38.4639 11.8994 38.8478 10.961 38.8478 9.98604V7.58064H36.7318V6.08638H54.0755V7.5852H54.0663ZM51.763 0.373565L52.0052 0H54.0161L53.3168 1.06603C52.9649 1.59904 52.3708 1.9225 51.731 1.9225H37.1843V0.373565H51.763Z" fill="white"/>
<path d="M59.5004 1.8093V0.317422V0H63.2393C63.0617 0.194988 62.9342 0.385441 62.8522 0.571359C62.7702 0.757277 62.7247 1.00215 62.7064 1.30143V6.8291C62.7064 9.85367 61.741 12.8012 59.9512 15.2453L57.5239 18.5556V15.3904C58.8173 13.1957 59.5004 10.6971 59.5004 8.1532V1.8093ZM71.2499 1.30143V1.61885V18.6145H68.021V1.8093V0H71.2499H71.7827C71.6051 0.194988 71.473 0.389975 71.3819 0.584963C71.2954 0.77995 71.2499 1.02028 71.2499 1.30143ZM80.4673 1.62338V18.619H77.2339V1.8093V0H80.4673H81.0001C80.8225 0.194988 80.6904 0.389975 80.5994 0.584963C80.5083 0.77995 80.4673 1.02028 80.4673 1.30143V1.62338Z" fill="white"/>
<g opacity="0.74">
<path d="M35.4046 25.1358C34.6593 25.1358 34.0192 25.5611 33.69 26.1784C33.3653 25.5474 32.716 25.1084 31.957 25.1084C31.3534 25.1084 30.823 25.3873 30.4618 25.8171V25.3416H30V27.0654V27.294V34.6283H30.4618V27.2895V27.0608C30.4618 26.2378 31.1294 25.5702 31.957 25.5702C32.7846 25.5702 33.4522 26.2378 33.4522 27.0608V27.2437V27.2895V34.6237H33.914V27.3215H33.9186V27.0928C33.9186 26.2698 34.5862 25.6022 35.4138 25.6022C36.2414 25.6022 36.909 26.2698 36.909 27.0928V27.2483H36.9044V34.6328H37.3662V27.3215H37.3708V27.0928C37.3571 26.0137 36.4837 25.1358 35.4046 25.1358Z" fill="white" stroke="white" stroke-width="0.6"/>
<path d="M80.2694 25.1357L78.8154 33.8783L77.3568 25.1357H77.2836H76.8904H76.8172L75.3632 33.8783L73.9046 25.1357H73.4336L75.0202 34.6282H75.2397H75.4912H75.7061L77.0916 26.3154L78.4724 34.6282H78.6919H78.9388H79.1583L80.7358 25.1357H80.2694Z" fill="white" stroke="white" stroke-width="0.6"/>
<path d="M56.5429 25.1359C55.9394 25.1359 55.409 25.4149 55.0478 25.8447V21.0527H54.5859V27.093V27.3216V34.6284H55.0478V27.3216V27.093C55.0478 26.2699 55.7199 25.6023 56.5429 25.6023C57.366 25.6023 58.0336 26.2699 58.0336 27.093V27.2484H58.029V34.6329H58.4908V27.3216H58.4954V27.093C58.5 26.0139 57.622 25.1359 56.5429 25.1359Z" fill="white" stroke="white" stroke-width="0.6"/>
<path d="M41.0517 25.1357C39.9726 25.1357 39.0947 26.0137 39.0947 27.0882H39.5565C39.5565 26.2651 40.2241 25.5976 41.0517 25.5976C41.8748 25.5976 42.5424 26.2651 42.5424 27.0882H43.0042C43.0042 26.0137 42.1263 25.1357 41.0517 25.1357Z" fill="white" stroke="white" stroke-width="0.6"/>
<path d="M43.004 27.0879H42.5422V28.6151H41.1384C40.009 28.6151 39.0991 29.5296 39.0991 30.6544V32.7806C39.0991 33.7957 39.9222 34.6187 40.9372 34.6187H41.1659C41.7146 34.6187 42.2038 34.3718 42.5422 33.9877V34.6187H43.004V32.808C43.004 32.7989 43.004 32.7943 43.004 32.7852V28.6197V27.0879ZM42.5422 32.808C42.5285 33.5579 41.9203 34.1661 41.1659 34.1661H40.9372C40.1782 34.1661 39.5609 33.5488 39.5609 32.7897V30.659C39.5609 29.7902 40.2697 29.0815 41.1384 29.0815H42.5422V32.808Z" fill="white" stroke="white" stroke-width="0.6"/>
<path d="M70.1189 25.1357C69.0398 25.1357 68.1665 26.0091 68.1665 27.0882V32.6712C68.1665 33.7503 69.0398 34.6236 70.1189 34.6236C71.198 34.6236 72.0714 33.7503 72.0714 32.6712V27.0882C72.0714 26.0091 71.198 25.1357 70.1189 25.1357ZM71.6096 32.6712C71.6096 33.4942 70.942 34.1618 70.1189 34.1618C69.2959 34.1618 68.6283 33.4942 68.6283 32.6712V27.0882C68.6283 26.2651 69.2959 25.5976 70.1189 25.5976C70.942 25.5976 71.6096 26.2651 71.6096 27.0882V32.6712Z" fill="white" stroke="white" stroke-width="0.6"/>
<path d="M50.9739 25.1406C49.8948 25.1406 49.0215 26.0185 49.0215 27.0976V32.676C49.0215 33.7551 49.8948 34.6285 50.9739 34.6285C52.053 34.6285 52.9309 33.7551 52.9309 32.676V32.3148H52.4691V32.676C52.4691 33.4991 51.8015 34.1667 50.9739 34.1667C50.1509 34.1667 49.4833 33.4991 49.4833 32.676V27.0976C49.4833 26.27 50.1509 25.6024 50.9739 25.6024C51.8015 25.6024 52.4691 26.27 52.4691 27.0976V27.4543H52.9309V27.0976C52.9309 26.0185 52.053 25.1406 50.9739 25.1406Z" fill="white" stroke="white" stroke-width="0.6"/>
<path d="M45.9213 25.9176V25.1357H45.4595V34.6236H45.9213V27.6963H45.935V27.1751C45.935 26.3063 46.6437 25.5976 47.5171 25.5976H47.7548V25.1357H47.5171C46.8678 25.1357 46.2962 25.4467 45.9213 25.9176Z" fill="white" stroke="white" stroke-width="0.6"/>
<path d="M61.2805 23.0872V23.6084V25.1356H59.5566V25.5974H61.2805V34.6281H61.7423V25.5974H63.4661V25.1356H61.7423V23.4438V23.0872C61.7423 22.2184 62.451 21.5097 63.3243 21.5097H63.4661V21.0479H63.3243C62.1995 21.0479 61.2805 21.9623 61.2805 23.0872Z" fill="white" stroke="white" stroke-width="0.6"/>
<path d="M65.3178 32.5842V32.2275V21.0479H64.856V32.0629V32.5842C64.856 33.709 65.775 34.6235 66.8998 34.6235H67.0416V34.1617H66.8998C66.0311 34.1662 65.3178 33.4529 65.3178 32.5842Z" fill="white" stroke="white" stroke-width="0.6"/>
</g>
<path d="M2.5 4.375L2.5 35H0L1.31134e-06 4.375H2.5Z" fill="white"/>
<path d="M20 1.09278e-07L20 35H17.5V0L20 1.09278e-07Z" fill="white"/>
<path d="M11.25 4.375L11.25 35H8.75L8.75 4.375H11.25Z" fill="white"/>
<path d="M15.625 4.375L15.625 30.625H13.125L13.125 4.375H15.625Z" fill="white"/>
<path d="M6.875 4.375L6.875 30.625H4.375L4.375 4.375H6.875Z" fill="white"/>
<path d="M20 35H0L1.5299e-06 32.5H20L20 35Z" fill="white"/>
<path d="M15.625 6.875L4.375 6.875L4.375 4.375H15.625V6.875Z" fill="white"/>
<path d="M15.625 2.5L4.375 2.5V7.94465e-08L15.625 1.06295e-06L15.625 2.5Z" fill="white"/>
<path d="M2.5 2.5H1.07292e-06L1.29148e-06 1.2914e-07L2.5 3.47697e-07V2.5Z" fill="white"/>
<rect x="8.75" y="4.375" width="2.5" height="30.625" fill="#F0183F"/>
</svg>
