<svg width="24" height="23" viewBox="0 0 24 23" fill="none" xmlns="http://www.w3.org/2000/svg">
<path d="M7.32372 19.6606L7.57735 19.7855C8.95216 20.4668 10.4661 20.8202 12.0004 20.8181C17.4141 20.8181 21.8186 16.5357 21.8186 11.2726C21.8186 6.00955 17.4141 1.72718 12.0004 1.72718C6.58681 1.72718 2.18226 6.00955 2.18226 11.2726C2.18226 13.3012 2.83844 15.2457 4.08044 16.8957L4.34554 17.2475L3.17226 20.5345L7.32372 19.6606ZM12.0004 22.4545C10.2997 22.4545 8.65681 22.0923 7.11263 21.3766L3.03208 22.2363C2.79474 22.2862 2.5484 22.2718 2.31844 22.1948C2.08847 22.1178 1.88322 21.9808 1.72383 21.798C1.56444 21.6152 1.45668 21.3932 1.41166 21.1549C1.36664 20.9166 1.38599 20.6706 1.46772 20.4423L2.51172 17.5175C1.2239 15.6619 0.545898 13.5123 0.545898 11.2726C0.545898 5.10682 5.68463 0.0908203 12.0004 0.0908203C18.3163 0.0908203 23.455 5.10682 23.455 11.2726C23.455 17.4385 18.3163 22.4545 12.0004 22.4545ZM7.63681 11.2726C7.63683 11.4159 7.60863 11.5578 7.55381 11.6902C7.499 11.8225 7.41865 11.9428 7.31735 12.0441C7.21604 12.1454 7.09577 12.2258 6.96341 12.2806C6.83104 12.3355 6.68917 12.3637 6.5459 12.3637C6.40263 12.3637 6.26076 12.3355 6.12839 12.2806C5.99602 12.2258 5.87576 12.1454 5.77445 12.0441C5.67315 11.9428 5.5928 11.8225 5.53798 11.6902C5.48317 11.5578 5.45497 11.4159 5.45499 11.2726C5.45503 10.9833 5.56999 10.7059 5.77457 10.5014C5.97915 10.2968 6.2566 10.1819 6.5459 10.1819C6.8352 10.1819 7.11265 10.2968 7.31723 10.5014C7.52181 10.7059 7.63677 10.9833 7.63681 11.2726ZM13.0914 11.2726C13.0914 11.4159 13.0631 11.5578 13.0083 11.6901C12.9535 11.8225 12.8731 11.9427 12.7718 12.044C12.6705 12.1453 12.5503 12.2257 12.4179 12.2805C12.2856 12.3353 12.1437 12.3635 12.0004 12.3635C11.8572 12.3635 11.7153 12.3353 11.583 12.2805C11.4506 12.2257 11.3304 12.1453 11.2291 12.044C11.1278 11.9427 11.0474 11.8225 10.9926 11.6901C10.9378 11.5578 10.9095 11.4159 10.9095 11.2726C10.9095 10.9833 11.0245 10.7058 11.2291 10.5012C11.4336 10.2967 11.7111 10.1817 12.0004 10.1817C12.2898 10.1817 12.5673 10.2967 12.7718 10.5012C12.9764 10.7058 13.0914 10.9833 13.0914 11.2726ZM18.5459 11.2726C18.5459 11.4159 18.5177 11.5578 18.4629 11.6902C18.4081 11.8225 18.3277 11.9428 18.2264 12.0441C18.1251 12.1454 18.0049 12.2258 17.8725 12.2806C17.7401 12.3355 17.5983 12.3637 17.455 12.3637C17.3117 12.3637 17.1698 12.3355 17.0375 12.2806C16.9051 12.2258 16.7848 12.1454 16.6835 12.0441C16.5822 11.9428 16.5019 11.8225 16.4471 11.6902C16.3923 11.5578 16.3641 11.4159 16.3641 11.2726C16.3641 10.9833 16.4791 10.7059 16.6837 10.5014C16.8882 10.2968 17.1657 10.1819 17.455 10.1819C17.7443 10.1819 18.0217 10.2968 18.2263 10.5014C18.4309 10.7059 18.5459 10.9833 18.5459 11.2726Z" fill="white"/>
</svg>
