<svg width="22" height="24" viewBox="0 0 22 24" fill="none" xmlns="http://www.w3.org/2000/svg">
<path d="M20.4538 4.1745C23.3342 7.84151 22.1446 13.8376 17.2662 18.8774C12.4989 23.8014 6.6447 25.5109 1.91847 22.5227C0.689811 21.7462 -0.282097 20.2591 0.074683 18.9805C0.694407 16.7578 4.50087 13.0338 6.52276 13.2159C7.0899 13.2675 7.68932 13.6385 8.54517 14.3186C8.63373 14.389 8.72438 14.4625 8.81712 14.5389L9.02825 14.7151C9.23432 14.8885 9.40655 15.0382 9.69833 15.2958L9.82398 15.4063L9.83252 15.4018C9.91002 15.3599 9.98581 15.315 10.0597 15.2672C10.4251 15.0323 10.8812 14.664 11.3626 14.2159L11.5029 14.0835C12.1552 13.4612 12.7735 12.7689 13.2163 12.1724L13.2582 12.1149L12.7169 11.6875C12.6051 11.5991 12.499 11.5128 12.3878 11.4222L12.0746 11.1645L11.8346 10.9626C11.2282 10.4456 10.8802 10.096 10.7172 9.78201C9.78652 7.98657 14.3536 1.79002 16.6287 1.98193C17.9822 2.09588 19.4223 2.93399 20.3527 4.04951L20.4538 4.1745ZM16.4691 3.83415C16.1786 3.8098 15.0299 4.8202 13.9827 6.2411C13.4597 6.95027 13.008 7.68663 12.7252 8.2878L12.6766 8.39217C12.598 8.56207 12.5321 8.73747 12.4795 8.91693L12.4592 9.0001L12.5552 9.09622L12.6081 9.14778C12.7783 9.30996 13.0074 9.51087 13.2863 9.74319L13.7466 10.12C13.9098 10.2514 14.0748 10.3832 14.2776 10.5422L15.0132 11.1205L15.1213 11.2117L15.1568 11.2451L15.1869 11.2282C15.2461 11.2082 15.2556 11.34 15.3273 12.3619C14.1264 14.5432 10.7456 17.692 9.31722 17.3045L9.1464 17.2371C9.11005 17.2224 9.08989 17.2125 9.07191 17.2018L8.9633 17.1264L8.87194 17.0537L8.54825 16.7725L7.99862 16.2912C7.91366 16.2184 7.83338 16.1497 7.74323 16.0745L7.48959 15.8654L7.36773 15.7676C7.12524 15.5706 6.87173 15.3873 6.60841 15.2185L6.51515 15.1631C6.40185 15.0975 6.33275 15.0656 6.35174 15.0674C5.40081 14.9814 2.29112 18.0234 1.88654 19.4751C1.80154 19.7797 2.31659 20.5683 2.93063 20.9567C6.76768 23.3825 11.6947 21.9441 15.9087 17.5912C20.2053 13.1535 21.197 8.15106 18.9695 5.31507C18.3495 4.52532 17.315 3.90544 16.4691 3.83415Z" fill="white"/>
<path d="M10.6043 1.36491e-07C7.58151 1.31556 6.01395 4.15221 6.24672 7.43738L6.26085 7.61384L8.13292 7.4489C7.90435 4.90688 9.00745 2.7949 11.2192 1.76563L11.3619 1.70141L10.6043 1.36491e-07Z" fill="white"/>
</svg>
