<svg width="393" height="48" viewBox="0 0 393 48" fill="none" xmlns="http://www.w3.org/2000/svg">
<path d="M26.7031 21.6133H42.9688V23.3008H37.8125V29.7461C37.8125 30.5586 38.1406 30.9648 38.7969 30.9648H39.9922C40.6953 30.9648 41.0938 30.6367 41.1875 29.9805C41.2969 29.3398 41.3906 28.3711 41.4688 27.0742C41.9531 27.293 42.5312 27.5273 43.2031 27.7773C43.0625 29.0742 42.9297 30.0117 42.8047 30.5898C42.5703 31.9023 41.7031 32.5586 40.2031 32.5586H38.1875C36.7344 32.5586 36.0078 31.7539 36.0078 30.1445V23.3008H32.5391C32.5234 24.7148 32.4766 25.8633 32.3984 26.7461C32.2266 29.4805 30.6953 31.668 27.8047 33.3086C27.4922 32.8242 27.1016 32.3008 26.6328 31.7383C29.1016 30.5039 30.4297 28.7695 30.6172 26.5352C30.6953 25.7227 30.7422 24.6445 30.7578 23.3008H26.7031V21.6133ZM30.0781 34.7148L35.4453 34.8086L43.625 34.6211C43.4531 35.1367 43.2344 35.7539 42.9688 36.4727L35.3516 36.4961L29.8438 36.3789C27.0938 36.3477 25.1641 35.4414 24.0547 33.6602C23.4141 34.2539 22.4766 35.3008 21.2422 36.8008L20.2812 34.8086C21.6641 33.4727 22.6641 32.5156 23.2812 31.9375V24.0977H20.4922V22.3633H25.0859V32.3125C26.0625 33.875 27.7266 34.6758 30.0781 34.7148ZM28.1328 15.6602H41.5156V17.3477H28.1328V15.6602ZM23.2109 14.4883C24.0078 15.457 25.1016 16.9336 26.4922 18.918L24.8281 20.0898C23.5625 18.1055 22.5234 16.5742 21.7109 15.4961L23.2109 14.4883ZM70.1966 14.3242H72.095V36.9648H70.1966V14.3242ZM55.0559 14.3477H56.9544V21.8242C56.9544 26.1523 56.6653 29.332 56.0872 31.3633C55.5403 33.3789 54.3294 35.3086 52.4544 37.1523C52.0481 36.668 51.5872 36.1367 51.0716 35.5586C52.7747 33.8242 53.8684 32.0586 54.3528 30.2617C54.8216 28.4648 55.0559 25.6523 55.0559 21.8242V14.3477ZM62.5794 15.4492H64.4778V35.418H62.5794V15.4492ZM90.065 28.6211H103.401V37.1992H101.596V35.793H91.8697V37.1992H90.065V28.6211ZM81.7447 25.3633C84.0416 21.957 85.7681 18.1914 86.9244 14.0664L88.7525 14.582C88.0728 16.6836 87.3306 18.6211 86.5259 20.3945V37.1992H84.7916V23.8281C84.0728 25.0859 83.315 26.2383 82.5181 27.2852C82.2681 26.6289 82.0103 25.9883 81.7447 25.3633ZM101.596 30.2148H91.8697V34.1992H101.596V30.2148ZM88.5181 17.2305H96.1705C95.7017 16.4258 95.2134 15.6289 94.7056 14.8398L96.2759 14.0195C96.8384 14.8633 97.3931 15.7539 97.94 16.6914L96.9205 17.2305H105.018V18.8711H88.5181V17.2305ZM89.8072 21.0508H103.635V22.6445H89.8072V21.0508ZM89.8072 24.8242H103.635V26.418H89.8072V24.8242ZM115.582 16.3398H121.312C121.648 15.5039 121.926 14.6992 122.144 13.9258L123.972 14.418C123.715 15.082 123.445 15.7227 123.164 16.3398H132.504V29.1367H130.699V28.4102H117.387V29.1367H115.582V16.3398ZM118.043 30.0273H119.824V33.4727C119.824 34.4414 120.34 34.9258 121.371 34.9258H126.574C127.824 34.9258 128.551 34.4961 128.754 33.6367C128.91 33.0742 129.066 32.2227 129.222 31.082C129.801 31.3164 130.41 31.543 131.051 31.7617C130.863 32.8398 130.676 33.707 130.488 34.3633C130.129 35.8477 128.965 36.5898 126.996 36.5898H121.09C119.058 36.5898 118.043 35.6211 118.043 33.6836V30.0273ZM117.387 23.3477H130.699V21.3789H117.387V23.3477ZM117.387 26.8164H130.699V24.8477H117.387V26.8164ZM130.699 17.9336H117.387V19.8789H130.699V17.9336ZM114.551 29.793L116.262 30.3789C115.574 32.2539 114.855 33.9648 114.105 35.5117C113.605 35.293 113.027 35.0664 112.371 34.832C113.137 33.4727 113.863 31.793 114.551 29.793ZM131.355 30.543L132.715 29.4883C133.824 30.6914 134.957 32.0117 136.113 33.4492L134.613 34.5977C133.551 33.1602 132.465 31.8086 131.355 30.543ZM122.144 29.7695L123.41 28.6914C124.363 29.5664 125.41 30.6133 126.551 31.832L125.121 33.0508C123.965 31.6914 122.972 30.5977 122.144 29.7695Z" fill="#E5E5E5"/>
<rect x="2" y="1" width="390" height="46" rx="1" stroke="white" stroke-opacity="0.23" stroke-width="2"/>
<rect x="241" y="2" width="2" height="44" fill="#C4C4C4" fill-opacity="0.23"/>
<path opacity="0.7" d="M241 0H391C392.105 0 393 0.895431 393 2V46C393 47.1046 392.105 48 391 48H241V0Z" fill="#F0183F"/>
<path d="M276.682 16.9838C275.16 16.9838 273.853 17.8511 273.181 19.1101C272.518 17.8232 271.193 16.9279 269.643 16.9279C268.411 16.9279 267.328 17.4968 266.59 18.3734V17.4035H265.647V36.3439H266.59V20.91C266.59 19.2313 267.953 17.8698 269.643 17.8698C271.333 17.8698 272.696 19.2313 272.696 20.91V36.3346H273.639V21.4415H273.648V20.9752C273.648 19.2966 275.011 17.9351 276.701 17.9351C278.391 17.9351 279.754 19.2966 279.754 20.9752V21.2923H279.744V36.3533H280.687V21.4415H280.697V20.9752C280.669 18.7744 278.885 16.9838 276.682 16.9838Z" fill="white"/>
<path d="M368.284 16.9839L365.315 34.8146L362.337 16.9839H361.235L358.267 34.8146L355.289 16.9839H354.327L357.567 36.344H358.967L361.796 19.3899L364.615 36.344H366.015L369.236 16.9839H368.284Z" fill="white"/>
<path d="M319.841 16.9838C318.609 16.9838 317.526 17.5527 316.788 18.4293V8.65599H315.845V36.3439H316.788V20.9752C316.788 19.2966 318.161 17.935 319.841 17.935C321.521 17.935 322.884 19.2966 322.884 20.9752V21.2923H322.875V36.3532H323.818V21.4415H323.827V20.9752C323.837 18.7743 322.044 16.9838 319.841 16.9838Z" fill="white"/>
<path d="M288.212 16.9839C286.009 16.9839 284.216 18.7744 284.216 20.9659H285.159C285.159 19.2873 286.522 17.9258 288.212 17.9258C289.892 17.9258 291.255 19.2873 291.255 20.9659H292.198C292.198 18.7744 290.406 16.9839 288.212 16.9839Z" fill="white"/>
<path d="M292.198 20.9659H291.255L291.255 24.0807H288.389C286.083 24.0807 284.225 25.9458 284.225 28.24V32.5764C284.225 34.6467 285.906 36.3253 287.978 36.3253H288.445C289.565 36.3253 290.564 35.8217 291.255 35.0384V36.3253H292.198V32.6323C292.198 32.6137 292.198 32.6044 292.198 32.5857L292.198 20.9659ZM291.255 32.6323C291.227 34.1618 289.985 35.4021 288.445 35.4021H287.978C286.429 35.4021 285.168 34.1431 285.168 32.595V28.2493C285.168 26.4774 286.615 25.0319 288.389 25.0319H291.255V32.6323Z" fill="white"/>
<path d="M347.559 16.9839C345.355 16.9839 343.572 18.7651 343.572 20.9659V32.3526C343.572 34.5534 345.355 36.3346 347.559 36.3346C349.762 36.3346 351.545 34.5534 351.545 32.3526V20.9659C351.545 18.7651 349.762 16.9839 347.559 16.9839ZM350.602 32.3526C350.602 34.0312 349.239 35.3927 347.559 35.3927C345.878 35.3927 344.515 34.0312 344.515 32.3526V20.9659C344.515 19.2873 345.878 17.9258 347.559 17.9258C349.239 17.9258 350.602 19.2873 350.602 20.9659V32.3526Z" fill="white"/>
<path d="M308.47 16.9933C306.267 16.9933 304.484 18.7838 304.484 20.9847V32.362C304.484 34.5628 306.267 36.344 308.47 36.344C310.673 36.344 312.466 34.5628 312.466 32.362V31.6252H311.523V32.362C311.523 34.0406 310.16 35.4021 308.47 35.4021C306.79 35.4021 305.427 34.0406 305.427 32.362V20.9847C305.427 19.2967 306.79 17.9352 308.47 17.9352C310.16 17.9352 311.523 19.2967 311.523 20.9847V21.7121H312.466V20.9847C312.466 18.7838 310.673 16.9933 308.47 16.9933Z" fill="white"/>
<path d="M298.154 18.5786V16.9839H297.211V36.3346H298.154V22.2062H298.182V21.1431C298.182 19.3712 299.629 17.9258 301.412 17.9258H301.898V16.9839H301.412C300.087 16.9839 298.92 17.618 298.154 18.5786Z" fill="white"/>
<path d="M329.513 12.806V16.9839H325.993V17.9258H329.513V36.344H330.456V17.9258H333.975V16.9839H330.456V12.806C330.456 11.0341 331.903 9.58863 333.686 9.58863H333.975V8.64674H333.686C331.389 8.64674 329.513 10.5119 329.513 12.806Z" fill="white"/>
<path d="M337.756 32.1754V8.64674H336.813V32.1754C336.813 34.4695 338.69 36.3346 340.986 36.3346H341.276V35.3927H340.986C339.213 35.4021 337.756 33.9473 337.756 32.1754Z" fill="white"/>
<path fill-rule="evenodd" clip-rule="evenodd" d="M328.865 12.806C328.865 10.1528 331.034 8 333.686 8H334.623V10.2354H333.686C332.259 10.2354 331.103 11.3925 331.103 12.806V16.3371H334.623V18.5725H331.103V36.9907H328.865V18.5725H325.346V16.3371H328.865V12.806ZM336.166 8H338.404V32.1754C338.404 33.5908 339.57 34.7535 340.983 34.746L340.986 34.746L341.923 34.746V36.9814H340.986C338.334 36.9814 336.166 34.8286 336.166 32.1754V8ZM315.198 8.00926H317.436V17.0225C318.133 16.5909 318.952 16.3371 319.841 16.3371C322.401 16.3371 324.485 18.4166 324.475 20.9767L324.475 20.9779L324.475 22.0882H324.465V37H322.228V20.7626C322.12 19.5407 321.092 18.5818 319.841 18.5818C318.516 18.5818 317.436 19.6563 317.436 20.9752V36.9906H315.198V8.00926ZM267.238 16.9666C267.935 16.5349 268.754 16.2812 269.643 16.2812C271.079 16.2812 272.346 16.9406 273.19 17.9567C274.032 16.9717 275.276 16.3371 276.682 16.3371C279.246 16.3371 281.311 18.4189 281.344 20.967L281.344 20.9752L281.344 22.0883H281.335V37H279.097V20.7627C278.989 19.5418 277.962 18.5818 276.701 18.5818C275.367 18.5818 274.296 19.6551 274.296 20.9752V22.0883H274.286V36.9814H272.048V20.91C272.048 19.5898 270.977 18.5165 269.643 18.5165C268.31 18.5165 267.238 19.5898 267.238 20.91V36.9907H265V16.7568H267.238V16.9666ZM283.569 20.9659C283.569 18.4162 285.652 16.3371 288.212 16.3371C290.763 16.3371 292.846 18.4172 292.846 20.9659L292.845 36.972H290.608V36.3934C289.971 36.7593 289.235 36.972 288.445 36.972H287.978C285.548 36.972 283.578 35.0039 283.578 32.5764V28.24C283.578 25.5896 285.725 23.434 288.389 23.434H290.608L290.608 20.9659C290.608 19.6445 289.535 18.5725 288.212 18.5725C286.878 18.5725 285.806 19.6458 285.806 20.9659V21.6127H283.569V20.9659ZM296.564 16.3371H298.802V17.1212C299.549 16.6296 300.443 16.3371 301.412 16.3371H302.545V18.5725H301.412C299.986 18.5725 298.83 19.7296 298.83 21.1431V22.853H298.802V36.9814H296.564V16.3371ZM342.925 20.9659C342.925 18.4079 344.998 16.3371 347.559 16.3371C350.119 16.3371 352.192 18.4079 352.192 20.9659V32.3526C352.192 34.9106 350.119 36.9814 347.559 36.9814C344.998 36.9814 342.925 34.9106 342.925 32.3526V20.9659ZM353.562 16.3371H355.837L358.266 30.8786L360.687 16.3371H362.885L365.314 30.8786L367.735 16.3371H370L366.564 36.9907H364.066L361.795 23.3301L359.515 36.9907H357.018L353.562 16.3371ZM365.035 34.9209L365.164 35.6972H365.467L365.596 34.9207L365.035 34.9209ZM362.065 19.2838L361.789 17.6306H361.784L361.509 19.2837L362.065 19.2838ZM357.985 34.9209L358.115 35.6972H358.418L358.548 34.9207L357.985 34.9209ZM303.836 20.9847C303.836 18.4286 305.907 16.3465 308.47 16.3465C311.031 16.3465 313.113 18.4266 313.113 20.9847V22.3588H310.876V20.9847C310.876 19.6539 309.802 18.5819 308.47 18.5819C307.149 18.5819 306.074 19.6526 306.074 20.9847V32.362C306.074 33.6834 307.147 34.7554 308.47 34.7554C309.804 34.7554 310.876 33.6821 310.876 32.362V30.9785H313.113V32.362C313.113 34.922 311.029 36.9908 308.47 36.9908C305.909 36.9908 303.836 34.92 303.836 32.362V20.9847ZM347.559 18.5725C346.236 18.5725 345.163 19.6445 345.163 20.9659V32.3526C345.163 33.674 346.236 34.746 347.559 34.746C348.882 34.746 349.955 33.674 349.955 32.3526V20.9659C349.955 19.6445 348.882 18.5725 347.559 18.5725ZM288.389 25.6787C286.973 25.6787 285.816 26.8346 285.816 28.2493V32.595C285.816 33.7859 286.786 34.7553 287.978 34.7553H288.445C289.625 34.7553 290.583 33.8059 290.608 32.6261V25.6787H288.389Z" fill="white"/>
<rect y="16" width="4" height="16" fill="#F0183F"/>
</svg>
